G04 #@! TF.GenerationSoftware,KiCad,Pcbnew,(5.0.0-3-g5ebb6b6)*
G04 #@! TF.CreationDate,2018-09-16T20:50:52-07:00*
G04 #@! TF.ProjectId,controller_MK5,636F6E74726F6C6C65725F4D4B352E6B,rev?*
G04 #@! TF.SameCoordinates,Original*
G04 #@! TF.FileFunction,Soldermask,Top*
G04 #@! TF.FilePolarity,Negative*
%FSLAX46Y46*%
G04 Gerber Fmt 4.6, Leading zero omitted, Abs format (unit mm)*
G04 Created by KiCad (PCBNEW (5.0.0-3-g5ebb6b6)) date Sunday, September 16, 2018 at 08:50:52 PM*
%MOMM*%
%LPD*%
G01*
G04 APERTURE LIST*
%ADD10R,1.900000X1.000000*%
%ADD11C,2.400000*%
%ADD12R,4.210000X4.640000*%
%ADD13C,1.900000*%
%ADD14R,1.850000X0.850000*%
%ADD15R,1.400000X1.220000*%
%ADD16R,1.150000X1.200000*%
%ADD17R,1.200000X1.150000*%
%ADD18R,1.300000X0.900000*%
%ADD19R,0.900000X1.300000*%
%ADD20C,3.400000*%
%ADD21C,4.700000*%
%ADD22R,2.000000X1.400000*%
%ADD23R,2.900000X1.400000*%
%ADD24R,1.000000X1.100000*%
%ADD25R,1.200000X1.300000*%
%ADD26R,1.300000X1.200000*%
%ADD27C,2.100000*%
G04 APERTURE END LIST*
D10*
G04 #@! TO.C,U6*
X126225000Y-119735000D03*
X126225000Y-118465000D03*
X132575000Y-118465000D03*
X132575000Y-119735000D03*
G04 #@! TD*
G04 #@! TO.C,U5*
X126225000Y-124635000D03*
X126225000Y-123365000D03*
X132575000Y-123365000D03*
X132575000Y-124635000D03*
G04 #@! TD*
G04 #@! TO.C,U4*
X126225000Y-129735000D03*
X126225000Y-128465000D03*
X132575000Y-128465000D03*
X132575000Y-129735000D03*
G04 #@! TD*
G04 #@! TO.C,U10*
X126225000Y-105035000D03*
X126225000Y-103765000D03*
X132575000Y-103765000D03*
X132575000Y-105035000D03*
G04 #@! TD*
G04 #@! TO.C,U9*
X126225000Y-109635000D03*
X126225000Y-108365000D03*
X132575000Y-108365000D03*
X132575000Y-109635000D03*
G04 #@! TD*
G04 #@! TO.C,U8*
X126225000Y-114635000D03*
X126225000Y-113365000D03*
X132575000Y-113365000D03*
X132575000Y-114635000D03*
G04 #@! TD*
D11*
G04 #@! TO.C,U7*
X74990000Y-115890000D03*
X74990000Y-126050000D03*
X74990000Y-133670000D03*
X82610000Y-133670000D03*
X82610000Y-126050000D03*
X82610000Y-115890000D03*
G04 #@! TD*
G04 #@! TO.C,U11*
X74990000Y-89290000D03*
X74990000Y-99450000D03*
X74990000Y-107070000D03*
X82610000Y-107070000D03*
X82610000Y-99450000D03*
X82610000Y-89290000D03*
G04 #@! TD*
D12*
G04 #@! TO.C,F1*
X142900000Y-92010000D03*
X142900000Y-98390000D03*
G04 #@! TD*
D13*
G04 #@! TO.C,U1*
X116900000Y-84200000D03*
X94900000Y-84200000D03*
X116900000Y-86200000D03*
X94900000Y-86200000D03*
X116900000Y-88200000D03*
X94900000Y-88200000D03*
X116900000Y-90200000D03*
X94900000Y-90200000D03*
X116900000Y-92200000D03*
X94900000Y-92200000D03*
X116900000Y-94200000D03*
X94900000Y-94200000D03*
X116900000Y-96200000D03*
X94900000Y-96200000D03*
X116900000Y-98200000D03*
X94900000Y-98200000D03*
X116900000Y-100200000D03*
X94900000Y-100200000D03*
X116900000Y-102200000D03*
X94900000Y-102200000D03*
G04 #@! TD*
D14*
G04 #@! TO.C,U3*
X102250000Y-119650000D03*
X102250000Y-120300000D03*
X102250000Y-120950000D03*
X102250000Y-121600000D03*
X102250000Y-122250000D03*
X102250000Y-122900000D03*
X102250000Y-123550000D03*
X108150000Y-123550000D03*
X108150000Y-122900000D03*
X108150000Y-122250000D03*
X108150000Y-121600000D03*
X108150000Y-120950000D03*
X108150000Y-120300000D03*
X108150000Y-119650000D03*
G04 #@! TD*
D15*
G04 #@! TO.C,D3*
X121300000Y-90300000D03*
X121300000Y-88700000D03*
G04 #@! TD*
D16*
G04 #@! TO.C,C2*
X98600000Y-84250000D03*
X98600000Y-85750000D03*
G04 #@! TD*
G04 #@! TO.C,C3*
X97200000Y-85750000D03*
X97200000Y-84250000D03*
G04 #@! TD*
G04 #@! TO.C,C6*
X137200000Y-128950000D03*
X137200000Y-127450000D03*
G04 #@! TD*
G04 #@! TO.C,C7*
X137100000Y-122550000D03*
X137100000Y-124050000D03*
G04 #@! TD*
G04 #@! TO.C,C8*
X137300000Y-117650000D03*
X137300000Y-119150000D03*
G04 #@! TD*
D17*
G04 #@! TO.C,C9*
X108150000Y-116400000D03*
X109650000Y-116400000D03*
G04 #@! TD*
G04 #@! TO.C,C10*
X109650000Y-117800000D03*
X108150000Y-117800000D03*
G04 #@! TD*
D16*
G04 #@! TO.C,C11*
X137300000Y-112450000D03*
X137300000Y-113950000D03*
G04 #@! TD*
G04 #@! TO.C,C12*
X137100000Y-108950000D03*
X137100000Y-107450000D03*
G04 #@! TD*
G04 #@! TO.C,C13*
X137200000Y-104350000D03*
X137200000Y-102850000D03*
G04 #@! TD*
D18*
G04 #@! TO.C,R1*
X121300000Y-85450000D03*
X121300000Y-86950000D03*
G04 #@! TD*
D19*
G04 #@! TO.C,R2*
X137150000Y-130600000D03*
X135650000Y-130600000D03*
G04 #@! TD*
G04 #@! TO.C,R3*
X136950000Y-125800000D03*
X135450000Y-125800000D03*
G04 #@! TD*
G04 #@! TO.C,R4*
X135450000Y-120800000D03*
X136950000Y-120800000D03*
G04 #@! TD*
D18*
G04 #@! TO.C,R5*
X135500000Y-127450000D03*
X135500000Y-128950000D03*
G04 #@! TD*
G04 #@! TO.C,R6*
X135500000Y-122550000D03*
X135500000Y-124050000D03*
G04 #@! TD*
G04 #@! TO.C,R7*
X135500000Y-119150000D03*
X135500000Y-117650000D03*
G04 #@! TD*
D19*
G04 #@! TO.C,R8*
X91950000Y-119000000D03*
X93450000Y-119000000D03*
G04 #@! TD*
G04 #@! TO.C,R9*
X85050000Y-112300000D03*
X83550000Y-112300000D03*
G04 #@! TD*
D18*
G04 #@! TO.C,R10*
X124400000Y-128450000D03*
X124400000Y-129950000D03*
G04 #@! TD*
G04 #@! TO.C,R11*
X124400000Y-123450000D03*
X124400000Y-124950000D03*
G04 #@! TD*
G04 #@! TO.C,R12*
X124400000Y-118450000D03*
X124400000Y-119950000D03*
G04 #@! TD*
D19*
G04 #@! TO.C,R13*
X137150000Y-115500000D03*
X135650000Y-115500000D03*
G04 #@! TD*
G04 #@! TO.C,R14*
X135550000Y-110500000D03*
X137050000Y-110500000D03*
G04 #@! TD*
G04 #@! TO.C,R15*
X135550000Y-105800000D03*
X137050000Y-105800000D03*
G04 #@! TD*
D18*
G04 #@! TO.C,R16*
X135600000Y-112450000D03*
X135600000Y-113950000D03*
G04 #@! TD*
G04 #@! TO.C,R17*
X135400000Y-108950000D03*
X135400000Y-107450000D03*
G04 #@! TD*
G04 #@! TO.C,R18*
X135400000Y-104350000D03*
X135400000Y-102850000D03*
G04 #@! TD*
G04 #@! TO.C,R20*
X82700000Y-83650000D03*
X82700000Y-82150000D03*
G04 #@! TD*
G04 #@! TO.C,R21*
X124400000Y-114750000D03*
X124400000Y-113250000D03*
G04 #@! TD*
G04 #@! TO.C,R22*
X124400000Y-108250000D03*
X124400000Y-109750000D03*
G04 #@! TD*
G04 #@! TO.C,R23*
X124400000Y-105200000D03*
X124400000Y-103700000D03*
G04 #@! TD*
G04 #@! TO.C,R24*
X90300000Y-117500000D03*
X90300000Y-119000000D03*
G04 #@! TD*
G04 #@! TO.C,R27*
X89300000Y-87700000D03*
X89300000Y-89200000D03*
G04 #@! TD*
D20*
G04 #@! TO.C,J1*
X149900000Y-92700000D03*
X149900000Y-97700000D03*
G04 #@! TD*
G04 #@! TO.C,J4*
X60400000Y-91050000D03*
X60400000Y-96050000D03*
X60400000Y-101050000D03*
X60400000Y-106050000D03*
G04 #@! TD*
G04 #@! TO.C,J5*
X60400000Y-130550000D03*
X60400000Y-125550000D03*
X60400000Y-120550000D03*
X60400000Y-115550000D03*
G04 #@! TD*
G04 #@! TO.C,J6*
X149900000Y-104200000D03*
X149900000Y-109200000D03*
X149900000Y-114200000D03*
X149900000Y-119200000D03*
X149900000Y-124200000D03*
X149900000Y-129200000D03*
G04 #@! TD*
D19*
G04 #@! TO.C,R29*
X90750000Y-89200000D03*
X92250000Y-89200000D03*
G04 #@! TD*
D21*
G04 #@! TO.C,J2*
X149400000Y-140200000D03*
G04 #@! TD*
G04 #@! TO.C,J7*
X149400000Y-80200000D03*
G04 #@! TD*
G04 #@! TO.C,J8*
X61400000Y-140200000D03*
G04 #@! TD*
G04 #@! TO.C,J9*
X61400000Y-80200000D03*
G04 #@! TD*
D22*
G04 #@! TO.C,C1*
X131400000Y-99450000D03*
X131400000Y-96450000D03*
G04 #@! TD*
D23*
G04 #@! TO.C,C4*
X137150000Y-99450000D03*
X137150000Y-96450000D03*
G04 #@! TD*
D22*
G04 #@! TO.C,C5*
X91900000Y-84200000D03*
X91900000Y-81200000D03*
G04 #@! TD*
G04 #@! TO.C,C14*
X128900000Y-99450000D03*
X128900000Y-96450000D03*
G04 #@! TD*
D24*
G04 #@! TO.C,D7*
X86600000Y-115400000D03*
X88000000Y-115400000D03*
G04 #@! TD*
G04 #@! TO.C,D12*
X87000000Y-85900000D03*
X85600000Y-85900000D03*
G04 #@! TD*
D25*
G04 #@! TO.C,Q1*
X120350000Y-94100000D03*
X122250000Y-94100000D03*
X121300000Y-92100000D03*
G04 #@! TD*
D26*
G04 #@! TO.C,Q2*
X86600000Y-118250000D03*
X88600000Y-117300000D03*
X88600000Y-119200000D03*
G04 #@! TD*
G04 #@! TO.C,Q3*
X85600000Y-88550000D03*
X87600000Y-87600000D03*
X87600000Y-89500000D03*
G04 #@! TD*
D27*
G04 #@! TO.C,U2*
X136440000Y-93700000D03*
X133900000Y-93700000D03*
X131360000Y-93700000D03*
G04 #@! TD*
M02*
