M48
;DRILL file {KiCad (5.0.0-3-g5ebb6b6)} date Sunday, September 16, 2018 at 08:50:55 PM
;FORMAT={-:-/ absolute / inch / decimal}
FMAT,2
INCH,TZ
T1C0.0157
T2C0.0315
T3C0.0394
T4C0.0433
T5C0.0512
%
G90
G05
M72
T1
X2.7795Y-3.8583
X3.4488Y-3.4488
X3.4646Y-3.6654
X3.4646Y-4.0236
X3.5197Y-5.4803
X3.5551Y-4.626
X3.7165Y-5.4803
X3.8839Y-3.748
X3.9232Y-4.8996
X4.0709Y-5.4803
X4.1575Y-3.5984
X4.1575Y-3.7559
X4.2283Y-3.8268
X4.2677Y-3.7087
X4.2677Y-3.9449
X4.2677Y-4.4862
X4.3169Y-4.6378
X4.3583Y-3.7992
X4.3858Y-4.1516
X4.4055Y-3.5118
X4.4055Y-3.6811
X4.4252Y-5.4803
X4.4646Y-3.8661
X4.4646Y-3.9449
X4.5157Y-3.4724
X4.7008Y-3.4331
X4.7008Y-5.4803
X4.7402Y-4.4567
X4.7402Y-4.6535
X4.7402Y-4.8504
X4.7402Y-5.0472
X4.8189Y-4.2598
X4.878Y-3.8268
X4.937Y-5.4803
X4.9695Y-4.0852
X4.9695Y-4.2663
X4.9695Y-4.4632
X4.9695Y-4.664
X4.9695Y-4.8569
X5.1339Y-4.0827
X5.1339Y-4.2697
X5.1339Y-4.4665
X5.1339Y-4.6634
X5.1339Y-4.8602
X5.2126Y-5.4803
X5.4488Y-5.4803
X5.5669Y-4.1024
X5.5669Y-4.2992
X5.5669Y-4.4961
X5.5669Y-4.6929
X5.5669Y-4.8898
X5.5669Y-5.0866
X5.5866Y-3.5807
X5.5866Y-3.6693
X5.626Y-3.6224
X5.6457Y-5.4803
X5.6654Y-3.5807
X5.6654Y-3.6693
X5.7244Y-3.6693
X5.7244Y-4.1024
X5.7244Y-4.2992
X5.7244Y-4.4961
X5.7244Y-4.6929
X5.7244Y-4.8898
X5.7244Y-5.0866
X5.7638Y-3.6398
T2
X3.7362Y-3.315
X3.7362Y-3.3937
X3.7362Y-3.4724
X3.7362Y-3.5512
X3.7362Y-3.6299
X3.7362Y-3.7087
X3.7362Y-3.7874
X3.7362Y-3.8661
X3.7362Y-3.9449
X3.7362Y-4.0236
X4.6024Y-3.315
X4.6024Y-3.3937
X4.6024Y-3.4724
X4.6024Y-3.5512
X4.6024Y-3.6299
X4.6024Y-3.7087
X4.6024Y-3.7874
X4.6024Y-3.8661
X4.6024Y-3.9449
X4.6024Y-4.0236
T3
X5.1717Y-3.689
X5.2717Y-3.689
X5.3717Y-3.689
T4
X2.9524Y-4.5626
X2.9524Y-4.9626
X2.9524Y-5.2626
X3.2524Y-4.5626
X3.2524Y-4.9626
X3.2524Y-5.2626
X2.9524Y-3.5154
X2.9524Y-3.9154
X2.9524Y-4.2154
X3.2524Y-3.5154
X3.2524Y-3.9154
X3.2524Y-4.2154
T5
X2.378Y-4.5492
X2.378Y-4.7461
X2.378Y-4.9429
X2.378Y-5.1398
X2.378Y-3.5846
X2.378Y-3.7815
X2.378Y-3.9783
X2.378Y-4.1752
X5.9016Y-4.1024
X5.9016Y-4.2992
X5.9016Y-4.4961
X5.9016Y-4.6929
X5.9016Y-4.8898
X5.9016Y-5.0866
X5.9016Y-3.6496
X5.9016Y-3.8465
T0
M30
