G04 #@! TF.GenerationSoftware,KiCad,Pcbnew,(5.0.0-3-g5ebb6b6)*
G04 #@! TF.CreationDate,2018-09-16T20:50:52-07:00*
G04 #@! TF.ProjectId,controller_MK5,636F6E74726F6C6C65725F4D4B352E6B,rev?*
G04 #@! TF.SameCoordinates,Original*
G04 #@! TF.FileFunction,Copper,L2,Bot,Signal*
G04 #@! TF.FilePolarity,Positive*
%FSLAX46Y46*%
G04 Gerber Fmt 4.6, Leading zero omitted, Abs format (unit mm)*
G04 Created by KiCad (PCBNEW (5.0.0-3-g5ebb6b6)) date Sunday, September 16, 2018 at 08:50:52 PM*
%MOMM*%
%LPD*%
G01*
G04 APERTURE LIST*
G04 #@! TA.AperFunction,ComponentPad*
%ADD10C,2.000000*%
G04 #@! TD*
G04 #@! TA.AperFunction,SMDPad,CuDef*
%ADD11R,1.800000X2.500000*%
G04 #@! TD*
G04 #@! TA.AperFunction,ComponentPad*
%ADD12C,1.500000*%
G04 #@! TD*
G04 #@! TA.AperFunction,ComponentPad*
%ADD13C,3.000000*%
G04 #@! TD*
G04 #@! TA.AperFunction,SMDPad,CuDef*
%ADD14R,2.500000X1.800000*%
G04 #@! TD*
G04 #@! TA.AperFunction,ComponentPad*
%ADD15C,1.700000*%
G04 #@! TD*
G04 #@! TA.AperFunction,ViaPad*
%ADD16C,0.800000*%
G04 #@! TD*
G04 #@! TA.AperFunction,Conductor*
%ADD17C,2.000000*%
G04 #@! TD*
G04 #@! TA.AperFunction,Conductor*
%ADD18C,1.000000*%
G04 #@! TD*
G04 #@! TA.AperFunction,Conductor*
%ADD19C,0.400000*%
G04 #@! TD*
G04 #@! TA.AperFunction,Conductor*
%ADD20C,1.500000*%
G04 #@! TD*
G04 #@! TA.AperFunction,Conductor*
%ADD21C,0.254000*%
G04 #@! TD*
G04 APERTURE END LIST*
D10*
G04 #@! TO.P,U7,1*
G04 #@! TO.N,Net-(D2-PadA)*
X74990000Y-115890000D03*
G04 #@! TO.P,U7,3*
G04 #@! TO.N,/START_B1*
X74990000Y-126050000D03*
G04 #@! TO.P,U7,4*
G04 #@! TO.N,/START_B2*
X74990000Y-133670000D03*
G04 #@! TO.P,U7,5*
G04 #@! TO.N,/START_A2*
X82610000Y-133670000D03*
G04 #@! TO.P,U7,6*
G04 #@! TO.N,/START_A1*
X82610000Y-126050000D03*
G04 #@! TO.P,U7,8*
G04 #@! TO.N,Net-(D2-PadC)*
X82610000Y-115890000D03*
G04 #@! TD*
G04 #@! TO.P,U11,1*
G04 #@! TO.N,Net-(D11-PadA)*
X74990000Y-89290000D03*
G04 #@! TO.P,U11,3*
G04 #@! TO.N,/STOP_A1*
X74990000Y-99450000D03*
G04 #@! TO.P,U11,4*
G04 #@! TO.N,/STOP_A2*
X74990000Y-107070000D03*
G04 #@! TO.P,U11,5*
G04 #@! TO.N,/STOP_B2*
X82610000Y-107070000D03*
G04 #@! TO.P,U11,6*
G04 #@! TO.N,/STOP_B1*
X82610000Y-99450000D03*
G04 #@! TO.P,U11,8*
G04 #@! TO.N,Net-(D11-PadC)*
X82610000Y-89290000D03*
G04 #@! TD*
D11*
G04 #@! TO.P,D1,C*
G04 #@! TO.N,GND*
X145400000Y-97200000D03*
G04 #@! TO.P,D1,A*
G04 #@! TO.N,Net-(D1-PadA)*
X145400000Y-93200000D03*
G04 #@! TD*
D12*
G04 #@! TO.P,U1,20*
G04 #@! TO.N,Net-(U1-Pad20)*
X116900000Y-84200000D03*
G04 #@! TO.P,U1,1*
G04 #@! TO.N,/SYS_3V3*
X94900000Y-84200000D03*
G04 #@! TO.P,U1,19*
G04 #@! TO.N,/IN_PULSE*
X116900000Y-86200000D03*
G04 #@! TO.P,U1,2*
G04 #@! TO.N,Net-(U1-Pad2)*
X94900000Y-86200000D03*
G04 #@! TO.P,U1,18*
G04 #@! TO.N,/IN_FAULT4*
X116900000Y-88200000D03*
G04 #@! TO.P,U1,3*
G04 #@! TO.N,Net-(U1-Pad3)*
X94900000Y-88200000D03*
G04 #@! TO.P,U1,17*
G04 #@! TO.N,/IN_FAULT3*
X116900000Y-90200000D03*
G04 #@! TO.P,U1,4*
G04 #@! TO.N,/OUT_STOP*
X94900000Y-90200000D03*
G04 #@! TO.P,U1,16*
G04 #@! TO.N,/IN_FAULT2*
X116900000Y-92200000D03*
G04 #@! TO.P,U1,5*
G04 #@! TO.N,/~XBEE_RST*
X94900000Y-92200000D03*
G04 #@! TO.P,U1,15*
G04 #@! TO.N,/XBEE_ASSO*
X116900000Y-94200000D03*
G04 #@! TO.P,U1,6*
G04 #@! TO.N,/IN_FAULT1*
X94900000Y-94200000D03*
G04 #@! TO.P,U1,14*
G04 #@! TO.N,Net-(U1-Pad14)*
X116900000Y-96200000D03*
G04 #@! TO.P,U1,7*
G04 #@! TO.N,/OUT_START*
X94900000Y-96200000D03*
G04 #@! TO.P,U1,13*
G04 #@! TO.N,Net-(U1-Pad13)*
X116900000Y-98200000D03*
G04 #@! TO.P,U1,8*
G04 #@! TO.N,Net-(U1-Pad8)*
X94900000Y-98200000D03*
G04 #@! TO.P,U1,12*
G04 #@! TO.N,Net-(U1-Pad12)*
X116900000Y-100200000D03*
G04 #@! TO.P,U1,9*
G04 #@! TO.N,Net-(U1-Pad9)*
X94900000Y-100200000D03*
G04 #@! TO.P,U1,11*
G04 #@! TO.N,/IN_BRAKE*
X116900000Y-102200000D03*
G04 #@! TO.P,U1,10*
G04 #@! TO.N,GND*
X94900000Y-102200000D03*
G04 #@! TD*
D13*
G04 #@! TO.P,J1,1*
G04 #@! TO.N,Net-(D1-PadA)*
X149900000Y-92700000D03*
G04 #@! TO.P,J1,2*
G04 #@! TO.N,GND*
X149900000Y-97700000D03*
G04 #@! TD*
G04 #@! TO.P,J4,1*
G04 #@! TO.N,/STOP_A1*
X60400000Y-91050000D03*
G04 #@! TO.P,J4,2*
G04 #@! TO.N,/STOP_A2*
X60400000Y-96050000D03*
G04 #@! TO.P,J4,3*
G04 #@! TO.N,/STOP_B1*
X60400000Y-101050000D03*
G04 #@! TO.P,J4,4*
G04 #@! TO.N,/STOP_B2*
X60400000Y-106050000D03*
G04 #@! TD*
G04 #@! TO.P,J5,4*
G04 #@! TO.N,/START_B2*
X60400000Y-130550000D03*
G04 #@! TO.P,J5,3*
G04 #@! TO.N,/START_B1*
X60400000Y-125550000D03*
G04 #@! TO.P,J5,2*
G04 #@! TO.N,/START_A2*
X60400000Y-120550000D03*
G04 #@! TO.P,J5,1*
G04 #@! TO.N,/START_A1*
X60400000Y-115550000D03*
G04 #@! TD*
G04 #@! TO.P,J6,6*
G04 #@! TO.N,/EXT_BRAKE*
X149900000Y-104200000D03*
G04 #@! TO.P,J6,5*
G04 #@! TO.N,/EXT_PULSE*
X149900000Y-109200000D03*
G04 #@! TO.P,J6,4*
G04 #@! TO.N,/EXT_FAULT4*
X149900000Y-114200000D03*
G04 #@! TO.P,J6,3*
G04 #@! TO.N,/EXT_FAULT3*
X149900000Y-119200000D03*
G04 #@! TO.P,J6,2*
G04 #@! TO.N,/EXT_FAULT2*
X149900000Y-124200000D03*
G04 #@! TO.P,J6,1*
G04 #@! TO.N,/EXT_FAULT1*
X149900000Y-129200000D03*
G04 #@! TD*
D14*
G04 #@! TO.P,D4,C*
G04 #@! TO.N,GND*
X141400000Y-129200000D03*
G04 #@! TO.P,D4,A*
G04 #@! TO.N,/EXT_FAULT1*
X145400000Y-129200000D03*
G04 #@! TD*
G04 #@! TO.P,D5,C*
G04 #@! TO.N,GND*
X141400000Y-124200000D03*
G04 #@! TO.P,D5,A*
G04 #@! TO.N,/EXT_FAULT2*
X145400000Y-124200000D03*
G04 #@! TD*
G04 #@! TO.P,D6,A*
G04 #@! TO.N,/EXT_FAULT3*
X145400000Y-119200000D03*
G04 #@! TO.P,D6,C*
G04 #@! TO.N,GND*
X141400000Y-119200000D03*
G04 #@! TD*
G04 #@! TO.P,D8,A*
G04 #@! TO.N,/EXT_FAULT4*
X145400000Y-114200000D03*
G04 #@! TO.P,D8,C*
G04 #@! TO.N,GND*
X141400000Y-114200000D03*
G04 #@! TD*
G04 #@! TO.P,D9,C*
G04 #@! TO.N,GND*
X141400000Y-109200000D03*
G04 #@! TO.P,D9,A*
G04 #@! TO.N,/EXT_PULSE*
X145400000Y-109200000D03*
G04 #@! TD*
G04 #@! TO.P,D10,A*
G04 #@! TO.N,/EXT_BRAKE*
X145400000Y-104200000D03*
G04 #@! TO.P,D10,C*
G04 #@! TO.N,GND*
X141400000Y-104200000D03*
G04 #@! TD*
G04 #@! TO.P,D11,C*
G04 #@! TO.N,Net-(D11-PadC)*
X80900000Y-86450000D03*
G04 #@! TO.P,D11,A*
G04 #@! TO.N,Net-(D11-PadA)*
X76900000Y-86450000D03*
G04 #@! TD*
G04 #@! TO.P,D2,C*
G04 #@! TO.N,Net-(D2-PadC)*
X80900000Y-112950000D03*
G04 #@! TO.P,D2,A*
G04 #@! TO.N,Net-(D2-PadA)*
X76900000Y-112950000D03*
G04 #@! TD*
D15*
G04 #@! TO.P,U2,1*
G04 #@! TO.N,/EXT_24V*
X136440000Y-93700000D03*
G04 #@! TO.P,U2,2*
G04 #@! TO.N,GND*
X133900000Y-93700000D03*
G04 #@! TO.P,U2,3*
G04 #@! TO.N,/SYS_3V3*
X131360000Y-93700000D03*
G04 #@! TD*
D16*
G04 #@! TO.N,GND*
X141400000Y-129200000D03*
X141400000Y-124200000D03*
X141400000Y-119200000D03*
X141400000Y-114200000D03*
X141400000Y-109200000D03*
X141400000Y-104200000D03*
X130400000Y-123450000D03*
X126225000Y-123365000D03*
X126225000Y-118465000D03*
X130400000Y-118450000D03*
X126225000Y-113365000D03*
X130400000Y-113450000D03*
X126225000Y-108365000D03*
X130400000Y-108450000D03*
X126225000Y-103765000D03*
X130400000Y-103700000D03*
X123900000Y-97200000D03*
X88000000Y-93100000D03*
X87600000Y-87600000D03*
X88000000Y-102200000D03*
X99650000Y-124450000D03*
X90300000Y-117500000D03*
X109650000Y-117800000D03*
X111400000Y-105450000D03*
X98650000Y-95200000D03*
X89400000Y-139200000D03*
X94400000Y-139200000D03*
X103400000Y-139200000D03*
X112400000Y-139200000D03*
X119400000Y-139200000D03*
X125400000Y-139200000D03*
X132400000Y-139200000D03*
X138400000Y-139200000D03*
X143400000Y-139200000D03*
X113400000Y-98200000D03*
X113400000Y-100200000D03*
X108400000Y-94200000D03*
X107400000Y-97200000D03*
X108400000Y-100200000D03*
X119400000Y-87200000D03*
X120400000Y-123200000D03*
X120400000Y-128200000D03*
X120400000Y-118200000D03*
X120400000Y-113200000D03*
X122400000Y-108200000D03*
G04 #@! TO.N,/SYS_3V3*
X108400000Y-113950000D03*
G04 #@! TO.N,/EXT_FAULT1*
X145400000Y-129200000D03*
G04 #@! TO.N,/EXT_FAULT2*
X145400000Y-124200000D03*
G04 #@! TO.N,/EXT_FAULT3*
X145400000Y-119200000D03*
G04 #@! TO.N,/EXT_FAULT4*
X145400000Y-114200000D03*
G04 #@! TO.N,/EXT_PULSE*
X145400000Y-109200000D03*
G04 #@! TO.N,/EXT_BRAKE*
X145400000Y-104200000D03*
G04 #@! TO.N,/STOP_A2*
X70600000Y-98000000D03*
G04 #@! TO.N,/IN_PULSE*
X111900000Y-93500000D03*
X111900000Y-89200000D03*
G04 #@! TO.N,/IN_FAULT4*
X110700000Y-96500000D03*
X114700000Y-88200000D03*
G04 #@! TO.N,/IN_FAULT3*
X105600000Y-95400000D03*
X105600000Y-91400000D03*
G04 #@! TO.N,Net-(D1-PadA)*
X145400000Y-93200000D03*
X142900000Y-92010000D03*
X141900000Y-90950000D03*
X143900000Y-90950000D03*
X143900000Y-93200000D03*
X141900000Y-93200000D03*
X146400000Y-92450000D03*
G04 #@! TD*
D17*
G04 #@! TO.N,GND*
X145900000Y-97700000D02*
X145400000Y-97200000D01*
X149900000Y-97700000D02*
X145900000Y-97700000D01*
D18*
X126310000Y-123450000D02*
X126225000Y-123365000D01*
X130400000Y-123450000D02*
X126310000Y-123450000D01*
X130385000Y-118465000D02*
X130400000Y-118450000D01*
X126225000Y-118465000D02*
X130385000Y-118465000D01*
X126225000Y-113365000D02*
X130315000Y-113365000D01*
X130315000Y-113365000D02*
X130400000Y-113450000D01*
X130315000Y-108365000D02*
X130400000Y-108450000D01*
X126225000Y-108365000D02*
X130315000Y-108365000D01*
X126225000Y-103765000D02*
X130335000Y-103765000D01*
X130335000Y-103765000D02*
X130400000Y-103700000D01*
X123900000Y-97200000D02*
X132650000Y-97200000D01*
X133900000Y-95950000D02*
X133900000Y-93700000D01*
X132650000Y-97200000D02*
X133900000Y-95950000D01*
X88000000Y-88000000D02*
X87600000Y-87600000D01*
X88000000Y-93100000D02*
X88000000Y-88000000D01*
X94900000Y-102200000D02*
X88000000Y-102200000D01*
D19*
X99650000Y-120450000D02*
X96700000Y-117500000D01*
X96700000Y-117500000D02*
X90300000Y-117500000D01*
X99650000Y-124450000D02*
X99650000Y-120450000D01*
X109625000Y-117800000D02*
X109650000Y-117800000D01*
X102575001Y-124849999D02*
X109625000Y-117800000D01*
X100049999Y-124849999D02*
X102575001Y-124849999D01*
X99650000Y-124450000D02*
X100049999Y-124849999D01*
D18*
X98150000Y-105450000D02*
X94900000Y-102200000D01*
X111400000Y-105450000D02*
X98150000Y-105450000D01*
X98650000Y-95200000D02*
X98650000Y-100700000D01*
X97150000Y-102200000D02*
X94900000Y-102200000D01*
X98650000Y-100700000D02*
X97150000Y-102200000D01*
D20*
G04 #@! TO.N,/SYS_3V3*
X131360000Y-93700000D02*
X122650000Y-93700000D01*
X122650000Y-93700000D02*
X119650000Y-96700000D01*
X119650000Y-96700000D02*
X119650000Y-101966002D01*
X119650000Y-101966002D02*
X119650000Y-102700000D01*
X119650000Y-102700000D02*
X108400000Y-113950000D01*
D17*
G04 #@! TO.N,/EXT_FAULT1*
X145400000Y-129200000D02*
X149900000Y-129200000D01*
G04 #@! TO.N,/EXT_FAULT2*
X145400000Y-124200000D02*
X149900000Y-124200000D01*
G04 #@! TO.N,/EXT_FAULT3*
X145400000Y-119200000D02*
X149900000Y-119200000D01*
G04 #@! TO.N,/EXT_FAULT4*
X145400000Y-114200000D02*
X149900000Y-114200000D01*
G04 #@! TO.N,/EXT_PULSE*
X145400000Y-109200000D02*
X149900000Y-109200000D01*
G04 #@! TO.N,/EXT_BRAKE*
X145400000Y-104200000D02*
X149900000Y-104200000D01*
G04 #@! TO.N,/STOP_B2*
X60400000Y-106050000D02*
X66650000Y-106050000D01*
X66650000Y-106050000D02*
X70600000Y-110000000D01*
X79680000Y-110000000D02*
X82610000Y-107070000D01*
X70600000Y-110000000D02*
X79680000Y-110000000D01*
G04 #@! TO.N,/STOP_B1*
X61899999Y-102549999D02*
X81150001Y-102549999D01*
X60400000Y-101050000D02*
X61899999Y-102549999D01*
X82610000Y-101090000D02*
X82610000Y-99450000D01*
X81150001Y-102549999D02*
X82610000Y-101090000D01*
G04 #@! TO.N,/STOP_A2*
X68650000Y-96050000D02*
X70600000Y-98000000D01*
X60400000Y-96050000D02*
X68650000Y-96050000D01*
G04 #@! TO.N,/STOP_A1*
X60400000Y-91050000D02*
X69450000Y-91050000D01*
X69450000Y-91050000D02*
X75100000Y-96700000D01*
X74990000Y-96810000D02*
X74990000Y-99450000D01*
X75100000Y-96700000D02*
X74990000Y-96810000D01*
D19*
G04 #@! TO.N,/IN_PULSE*
X111900000Y-93500000D02*
X111900000Y-89200000D01*
G04 #@! TO.N,/IN_FAULT4*
X111099999Y-96100001D02*
X111899999Y-96100001D01*
X110700000Y-96500000D02*
X111099999Y-96100001D01*
X111899999Y-96100001D02*
X113500000Y-94500000D01*
X113500000Y-89400000D02*
X114700000Y-88200000D01*
X113500000Y-94500000D02*
X113500000Y-89400000D01*
G04 #@! TO.N,/IN_FAULT3*
X105600000Y-95400000D02*
X105600000Y-91400000D01*
D17*
G04 #@! TO.N,Net-(D1-PadA)*
X145900000Y-92700000D02*
X145400000Y-93200000D01*
X149900000Y-92700000D02*
X145900000Y-92700000D01*
X145400000Y-93200000D02*
X145400000Y-93200000D01*
G04 #@! TO.N,Net-(D2-PadC)*
X80900000Y-114180000D02*
X82610000Y-115890000D01*
X80900000Y-112950000D02*
X80900000Y-114180000D01*
G04 #@! TO.N,Net-(D2-PadA)*
X76900000Y-113980000D02*
X74990000Y-115890000D01*
X76900000Y-112950000D02*
X76900000Y-113980000D01*
G04 #@! TO.N,Net-(D11-PadC)*
X80900000Y-87580000D02*
X82610000Y-89290000D01*
X80900000Y-86450000D02*
X80900000Y-87580000D01*
G04 #@! TO.N,Net-(D11-PadA)*
X76900000Y-87380000D02*
X74990000Y-89290000D01*
X76900000Y-86450000D02*
X76900000Y-87380000D01*
G04 #@! TD*
D21*
G04 #@! TO.N,GND*
G36*
X154273000Y-145073000D02*
X56527000Y-145073000D01*
X56527000Y-139646029D01*
X58615000Y-139646029D01*
X58615000Y-140753971D01*
X59038991Y-141777576D01*
X59822424Y-142561009D01*
X60846029Y-142985000D01*
X61953971Y-142985000D01*
X62977576Y-142561009D01*
X63761009Y-141777576D01*
X64185000Y-140753971D01*
X64185000Y-139646029D01*
X146615000Y-139646029D01*
X146615000Y-140753971D01*
X147038991Y-141777576D01*
X147822424Y-142561009D01*
X148846029Y-142985000D01*
X149953971Y-142985000D01*
X150977576Y-142561009D01*
X151761009Y-141777576D01*
X152185000Y-140753971D01*
X152185000Y-139646029D01*
X151761009Y-138622424D01*
X150977576Y-137838991D01*
X149953971Y-137415000D01*
X148846029Y-137415000D01*
X147822424Y-137838991D01*
X147038991Y-138622424D01*
X146615000Y-139646029D01*
X64185000Y-139646029D01*
X63761009Y-138622424D01*
X62977576Y-137838991D01*
X61953971Y-137415000D01*
X60846029Y-137415000D01*
X59822424Y-137838991D01*
X59038991Y-138622424D01*
X58615000Y-139646029D01*
X56527000Y-139646029D01*
X56527000Y-133344778D01*
X73355000Y-133344778D01*
X73355000Y-133995222D01*
X73603914Y-134596153D01*
X74063847Y-135056086D01*
X74664778Y-135305000D01*
X75315222Y-135305000D01*
X75916153Y-135056086D01*
X76376086Y-134596153D01*
X76625000Y-133995222D01*
X76625000Y-133344778D01*
X80975000Y-133344778D01*
X80975000Y-133995222D01*
X81223914Y-134596153D01*
X81683847Y-135056086D01*
X82284778Y-135305000D01*
X82935222Y-135305000D01*
X83536153Y-135056086D01*
X83996086Y-134596153D01*
X84245000Y-133995222D01*
X84245000Y-133344778D01*
X83996086Y-132743847D01*
X83536153Y-132283914D01*
X82935222Y-132035000D01*
X82284778Y-132035000D01*
X81683847Y-132283914D01*
X81223914Y-132743847D01*
X80975000Y-133344778D01*
X76625000Y-133344778D01*
X76376086Y-132743847D01*
X75916153Y-132283914D01*
X75315222Y-132035000D01*
X74664778Y-132035000D01*
X74063847Y-132283914D01*
X73603914Y-132743847D01*
X73355000Y-133344778D01*
X56527000Y-133344778D01*
X56527000Y-130125322D01*
X58265000Y-130125322D01*
X58265000Y-130974678D01*
X58590034Y-131759380D01*
X59190620Y-132359966D01*
X59975322Y-132685000D01*
X60824678Y-132685000D01*
X61609380Y-132359966D01*
X62209966Y-131759380D01*
X62535000Y-130974678D01*
X62535000Y-130125322D01*
X62270081Y-129485750D01*
X139515000Y-129485750D01*
X139515000Y-130226310D01*
X139611673Y-130459699D01*
X139790302Y-130638327D01*
X140023691Y-130735000D01*
X141114250Y-130735000D01*
X141273000Y-130576250D01*
X141273000Y-129327000D01*
X141527000Y-129327000D01*
X141527000Y-130576250D01*
X141685750Y-130735000D01*
X142776309Y-130735000D01*
X143009698Y-130638327D01*
X143188327Y-130459699D01*
X143285000Y-130226310D01*
X143285000Y-129485750D01*
X143126250Y-129327000D01*
X141527000Y-129327000D01*
X141273000Y-129327000D01*
X139673750Y-129327000D01*
X139515000Y-129485750D01*
X62270081Y-129485750D01*
X62209966Y-129340620D01*
X61609380Y-128740034D01*
X60824678Y-128415000D01*
X59975322Y-128415000D01*
X59190620Y-128740034D01*
X58590034Y-129340620D01*
X58265000Y-130125322D01*
X56527000Y-130125322D01*
X56527000Y-128173690D01*
X139515000Y-128173690D01*
X139515000Y-128914250D01*
X139673750Y-129073000D01*
X141273000Y-129073000D01*
X141273000Y-127823750D01*
X141527000Y-127823750D01*
X141527000Y-129073000D01*
X143126250Y-129073000D01*
X143285000Y-128914250D01*
X143285000Y-128300000D01*
X143502560Y-128300000D01*
X143502560Y-130100000D01*
X143551843Y-130347765D01*
X143692191Y-130557809D01*
X143902235Y-130698157D01*
X144150000Y-130747440D01*
X144798775Y-130747440D01*
X145238969Y-130835000D01*
X148515654Y-130835000D01*
X148690620Y-131009966D01*
X149475322Y-131335000D01*
X150324678Y-131335000D01*
X151109380Y-131009966D01*
X151709966Y-130409380D01*
X152035000Y-129624678D01*
X152035000Y-128775322D01*
X151709966Y-127990620D01*
X151109380Y-127390034D01*
X150324678Y-127065000D01*
X149475322Y-127065000D01*
X148690620Y-127390034D01*
X148515654Y-127565000D01*
X145238969Y-127565000D01*
X144798775Y-127652560D01*
X144150000Y-127652560D01*
X143902235Y-127701843D01*
X143692191Y-127842191D01*
X143551843Y-128052235D01*
X143502560Y-128300000D01*
X143285000Y-128300000D01*
X143285000Y-128173690D01*
X143188327Y-127940301D01*
X143009698Y-127761673D01*
X142776309Y-127665000D01*
X141685750Y-127665000D01*
X141527000Y-127823750D01*
X141273000Y-127823750D01*
X141114250Y-127665000D01*
X140023691Y-127665000D01*
X139790302Y-127761673D01*
X139611673Y-127940301D01*
X139515000Y-128173690D01*
X56527000Y-128173690D01*
X56527000Y-125125322D01*
X58265000Y-125125322D01*
X58265000Y-125974678D01*
X58590034Y-126759380D01*
X59190620Y-127359966D01*
X59975322Y-127685000D01*
X60824678Y-127685000D01*
X61609380Y-127359966D01*
X62209966Y-126759380D01*
X62535000Y-125974678D01*
X62535000Y-125724778D01*
X73355000Y-125724778D01*
X73355000Y-126375222D01*
X73603914Y-126976153D01*
X74063847Y-127436086D01*
X74664778Y-127685000D01*
X75315222Y-127685000D01*
X75916153Y-127436086D01*
X76376086Y-126976153D01*
X76625000Y-126375222D01*
X76625000Y-125724778D01*
X80975000Y-125724778D01*
X80975000Y-126375222D01*
X81223914Y-126976153D01*
X81683847Y-127436086D01*
X82284778Y-127685000D01*
X82935222Y-127685000D01*
X83536153Y-127436086D01*
X83996086Y-126976153D01*
X84245000Y-126375222D01*
X84245000Y-125724778D01*
X83996086Y-125123847D01*
X83536153Y-124663914D01*
X83106028Y-124485750D01*
X139515000Y-124485750D01*
X139515000Y-125226310D01*
X139611673Y-125459699D01*
X139790302Y-125638327D01*
X140023691Y-125735000D01*
X141114250Y-125735000D01*
X141273000Y-125576250D01*
X141273000Y-124327000D01*
X141527000Y-124327000D01*
X141527000Y-125576250D01*
X141685750Y-125735000D01*
X142776309Y-125735000D01*
X143009698Y-125638327D01*
X143188327Y-125459699D01*
X143285000Y-125226310D01*
X143285000Y-124485750D01*
X143126250Y-124327000D01*
X141527000Y-124327000D01*
X141273000Y-124327000D01*
X139673750Y-124327000D01*
X139515000Y-124485750D01*
X83106028Y-124485750D01*
X82935222Y-124415000D01*
X82284778Y-124415000D01*
X81683847Y-124663914D01*
X81223914Y-125123847D01*
X80975000Y-125724778D01*
X76625000Y-125724778D01*
X76376086Y-125123847D01*
X75916153Y-124663914D01*
X75315222Y-124415000D01*
X74664778Y-124415000D01*
X74063847Y-124663914D01*
X73603914Y-125123847D01*
X73355000Y-125724778D01*
X62535000Y-125724778D01*
X62535000Y-125125322D01*
X62209966Y-124340620D01*
X61609380Y-123740034D01*
X60824678Y-123415000D01*
X59975322Y-123415000D01*
X59190620Y-123740034D01*
X58590034Y-124340620D01*
X58265000Y-125125322D01*
X56527000Y-125125322D01*
X56527000Y-123173690D01*
X139515000Y-123173690D01*
X139515000Y-123914250D01*
X139673750Y-124073000D01*
X141273000Y-124073000D01*
X141273000Y-122823750D01*
X141527000Y-122823750D01*
X141527000Y-124073000D01*
X143126250Y-124073000D01*
X143285000Y-123914250D01*
X143285000Y-123300000D01*
X143502560Y-123300000D01*
X143502560Y-125100000D01*
X143551843Y-125347765D01*
X143692191Y-125557809D01*
X143902235Y-125698157D01*
X144150000Y-125747440D01*
X144798775Y-125747440D01*
X145238969Y-125835000D01*
X148515654Y-125835000D01*
X148690620Y-126009966D01*
X149475322Y-126335000D01*
X150324678Y-126335000D01*
X151109380Y-126009966D01*
X151709966Y-125409380D01*
X152035000Y-124624678D01*
X152035000Y-123775322D01*
X151709966Y-122990620D01*
X151109380Y-122390034D01*
X150324678Y-122065000D01*
X149475322Y-122065000D01*
X148690620Y-122390034D01*
X148515654Y-122565000D01*
X145238969Y-122565000D01*
X144798775Y-122652560D01*
X144150000Y-122652560D01*
X143902235Y-122701843D01*
X143692191Y-122842191D01*
X143551843Y-123052235D01*
X143502560Y-123300000D01*
X143285000Y-123300000D01*
X143285000Y-123173690D01*
X143188327Y-122940301D01*
X143009698Y-122761673D01*
X142776309Y-122665000D01*
X141685750Y-122665000D01*
X141527000Y-122823750D01*
X141273000Y-122823750D01*
X141114250Y-122665000D01*
X140023691Y-122665000D01*
X139790302Y-122761673D01*
X139611673Y-122940301D01*
X139515000Y-123173690D01*
X56527000Y-123173690D01*
X56527000Y-120125322D01*
X58265000Y-120125322D01*
X58265000Y-120974678D01*
X58590034Y-121759380D01*
X59190620Y-122359966D01*
X59975322Y-122685000D01*
X60824678Y-122685000D01*
X61609380Y-122359966D01*
X62209966Y-121759380D01*
X62535000Y-120974678D01*
X62535000Y-120125322D01*
X62270081Y-119485750D01*
X139515000Y-119485750D01*
X139515000Y-120226310D01*
X139611673Y-120459699D01*
X139790302Y-120638327D01*
X140023691Y-120735000D01*
X141114250Y-120735000D01*
X141273000Y-120576250D01*
X141273000Y-119327000D01*
X141527000Y-119327000D01*
X141527000Y-120576250D01*
X141685750Y-120735000D01*
X142776309Y-120735000D01*
X143009698Y-120638327D01*
X143188327Y-120459699D01*
X143285000Y-120226310D01*
X143285000Y-119485750D01*
X143126250Y-119327000D01*
X141527000Y-119327000D01*
X141273000Y-119327000D01*
X139673750Y-119327000D01*
X139515000Y-119485750D01*
X62270081Y-119485750D01*
X62209966Y-119340620D01*
X61609380Y-118740034D01*
X60824678Y-118415000D01*
X59975322Y-118415000D01*
X59190620Y-118740034D01*
X58590034Y-119340620D01*
X58265000Y-120125322D01*
X56527000Y-120125322D01*
X56527000Y-118173690D01*
X139515000Y-118173690D01*
X139515000Y-118914250D01*
X139673750Y-119073000D01*
X141273000Y-119073000D01*
X141273000Y-117823750D01*
X141527000Y-117823750D01*
X141527000Y-119073000D01*
X143126250Y-119073000D01*
X143285000Y-118914250D01*
X143285000Y-118300000D01*
X143502560Y-118300000D01*
X143502560Y-120100000D01*
X143551843Y-120347765D01*
X143692191Y-120557809D01*
X143902235Y-120698157D01*
X144150000Y-120747440D01*
X144798775Y-120747440D01*
X145238969Y-120835000D01*
X148515654Y-120835000D01*
X148690620Y-121009966D01*
X149475322Y-121335000D01*
X150324678Y-121335000D01*
X151109380Y-121009966D01*
X151709966Y-120409380D01*
X152035000Y-119624678D01*
X152035000Y-118775322D01*
X151709966Y-117990620D01*
X151109380Y-117390034D01*
X150324678Y-117065000D01*
X149475322Y-117065000D01*
X148690620Y-117390034D01*
X148515654Y-117565000D01*
X145238969Y-117565000D01*
X144798775Y-117652560D01*
X144150000Y-117652560D01*
X143902235Y-117701843D01*
X143692191Y-117842191D01*
X143551843Y-118052235D01*
X143502560Y-118300000D01*
X143285000Y-118300000D01*
X143285000Y-118173690D01*
X143188327Y-117940301D01*
X143009698Y-117761673D01*
X142776309Y-117665000D01*
X141685750Y-117665000D01*
X141527000Y-117823750D01*
X141273000Y-117823750D01*
X141114250Y-117665000D01*
X140023691Y-117665000D01*
X139790302Y-117761673D01*
X139611673Y-117940301D01*
X139515000Y-118173690D01*
X56527000Y-118173690D01*
X56527000Y-115125322D01*
X58265000Y-115125322D01*
X58265000Y-115974678D01*
X58590034Y-116759380D01*
X59190620Y-117359966D01*
X59975322Y-117685000D01*
X60824678Y-117685000D01*
X61609380Y-117359966D01*
X62209966Y-116759380D01*
X62535000Y-115974678D01*
X62535000Y-115125322D01*
X62209966Y-114340620D01*
X61609380Y-113740034D01*
X60824678Y-113415000D01*
X59975322Y-113415000D01*
X59190620Y-113740034D01*
X58590034Y-114340620D01*
X58265000Y-115125322D01*
X56527000Y-115125322D01*
X56527000Y-105625322D01*
X58265000Y-105625322D01*
X58265000Y-106474678D01*
X58590034Y-107259380D01*
X59190620Y-107859966D01*
X59975322Y-108185000D01*
X60824678Y-108185000D01*
X61609380Y-107859966D01*
X61784346Y-107685000D01*
X65972762Y-107685000D01*
X69330016Y-111042255D01*
X69421231Y-111178769D01*
X69557744Y-111269984D01*
X69557746Y-111269986D01*
X69962054Y-111540136D01*
X70600000Y-111667031D01*
X70761031Y-111635000D01*
X75163587Y-111635000D01*
X75051843Y-111802235D01*
X75002560Y-112050000D01*
X75002560Y-113565201D01*
X73603914Y-114963847D01*
X73541079Y-115115543D01*
X73449865Y-115252055D01*
X73417834Y-115413082D01*
X73355000Y-115564778D01*
X73355000Y-115728970D01*
X73322969Y-115890000D01*
X73355000Y-116051030D01*
X73355000Y-116215222D01*
X73417834Y-116366918D01*
X73449865Y-116527945D01*
X73541079Y-116664456D01*
X73603914Y-116816153D01*
X73720018Y-116932257D01*
X73811232Y-117068768D01*
X73947743Y-117159982D01*
X74063847Y-117276086D01*
X74215544Y-117338921D01*
X74352055Y-117430135D01*
X74513082Y-117462166D01*
X74664778Y-117525000D01*
X74828970Y-117525000D01*
X74990000Y-117557031D01*
X75151030Y-117525000D01*
X75315222Y-117525000D01*
X75466918Y-117462166D01*
X75627945Y-117430135D01*
X75764457Y-117338921D01*
X75916153Y-117276086D01*
X76376087Y-116816152D01*
X77942252Y-115249986D01*
X78078769Y-115158769D01*
X78440136Y-114617945D01*
X78485580Y-114389480D01*
X78607809Y-114307809D01*
X78748157Y-114097765D01*
X78797440Y-113850000D01*
X78797440Y-112050000D01*
X78748157Y-111802235D01*
X78636413Y-111635000D01*
X79163587Y-111635000D01*
X79051843Y-111802235D01*
X79002560Y-112050000D01*
X79002560Y-113850000D01*
X79051843Y-114097765D01*
X79192191Y-114307809D01*
X79268539Y-114358824D01*
X79359864Y-114817945D01*
X79721232Y-115358769D01*
X79857748Y-115449986D01*
X81223914Y-116816153D01*
X81683847Y-117276086D01*
X81835540Y-117338920D01*
X81972054Y-117430135D01*
X82133082Y-117462165D01*
X82284778Y-117525000D01*
X82448973Y-117525000D01*
X82609999Y-117557030D01*
X82771025Y-117525000D01*
X82935222Y-117525000D01*
X83086919Y-117462165D01*
X83247945Y-117430135D01*
X83384456Y-117338921D01*
X83536153Y-117276086D01*
X83652257Y-117159982D01*
X83788768Y-117068768D01*
X83879982Y-116932257D01*
X83996086Y-116816153D01*
X84058921Y-116664456D01*
X84150135Y-116527945D01*
X84182165Y-116366919D01*
X84245000Y-116215222D01*
X84245000Y-116051025D01*
X84277030Y-115889999D01*
X84245000Y-115728973D01*
X84245000Y-115564778D01*
X84182165Y-115413082D01*
X84150135Y-115252054D01*
X84058920Y-115115540D01*
X83996086Y-114963847D01*
X83536153Y-114503914D01*
X82982239Y-113950000D01*
X106987867Y-113950000D01*
X107095359Y-114490399D01*
X107401472Y-114948528D01*
X107859601Y-115254641D01*
X108400000Y-115362133D01*
X108940399Y-115254641D01*
X109282888Y-115025797D01*
X109822935Y-114485750D01*
X139515000Y-114485750D01*
X139515000Y-115226310D01*
X139611673Y-115459699D01*
X139790302Y-115638327D01*
X140023691Y-115735000D01*
X141114250Y-115735000D01*
X141273000Y-115576250D01*
X141273000Y-114327000D01*
X141527000Y-114327000D01*
X141527000Y-115576250D01*
X141685750Y-115735000D01*
X142776309Y-115735000D01*
X143009698Y-115638327D01*
X143188327Y-115459699D01*
X143285000Y-115226310D01*
X143285000Y-114485750D01*
X143126250Y-114327000D01*
X141527000Y-114327000D01*
X141273000Y-114327000D01*
X139673750Y-114327000D01*
X139515000Y-114485750D01*
X109822935Y-114485750D01*
X111134995Y-113173690D01*
X139515000Y-113173690D01*
X139515000Y-113914250D01*
X139673750Y-114073000D01*
X141273000Y-114073000D01*
X141273000Y-112823750D01*
X141527000Y-112823750D01*
X141527000Y-114073000D01*
X143126250Y-114073000D01*
X143285000Y-113914250D01*
X143285000Y-113300000D01*
X143502560Y-113300000D01*
X143502560Y-115100000D01*
X143551843Y-115347765D01*
X143692191Y-115557809D01*
X143902235Y-115698157D01*
X144150000Y-115747440D01*
X144798775Y-115747440D01*
X145238969Y-115835000D01*
X148515654Y-115835000D01*
X148690620Y-116009966D01*
X149475322Y-116335000D01*
X150324678Y-116335000D01*
X151109380Y-116009966D01*
X151709966Y-115409380D01*
X152035000Y-114624678D01*
X152035000Y-113775322D01*
X151709966Y-112990620D01*
X151109380Y-112390034D01*
X150324678Y-112065000D01*
X149475322Y-112065000D01*
X148690620Y-112390034D01*
X148515654Y-112565000D01*
X145238969Y-112565000D01*
X144798775Y-112652560D01*
X144150000Y-112652560D01*
X143902235Y-112701843D01*
X143692191Y-112842191D01*
X143551843Y-113052235D01*
X143502560Y-113300000D01*
X143285000Y-113300000D01*
X143285000Y-113173690D01*
X143188327Y-112940301D01*
X143009698Y-112761673D01*
X142776309Y-112665000D01*
X141685750Y-112665000D01*
X141527000Y-112823750D01*
X141273000Y-112823750D01*
X141114250Y-112665000D01*
X140023691Y-112665000D01*
X139790302Y-112761673D01*
X139611673Y-112940301D01*
X139515000Y-113173690D01*
X111134995Y-113173690D01*
X114822935Y-109485750D01*
X139515000Y-109485750D01*
X139515000Y-110226310D01*
X139611673Y-110459699D01*
X139790302Y-110638327D01*
X140023691Y-110735000D01*
X141114250Y-110735000D01*
X141273000Y-110576250D01*
X141273000Y-109327000D01*
X141527000Y-109327000D01*
X141527000Y-110576250D01*
X141685750Y-110735000D01*
X142776309Y-110735000D01*
X143009698Y-110638327D01*
X143188327Y-110459699D01*
X143285000Y-110226310D01*
X143285000Y-109485750D01*
X143126250Y-109327000D01*
X141527000Y-109327000D01*
X141273000Y-109327000D01*
X139673750Y-109327000D01*
X139515000Y-109485750D01*
X114822935Y-109485750D01*
X116134995Y-108173690D01*
X139515000Y-108173690D01*
X139515000Y-108914250D01*
X139673750Y-109073000D01*
X141273000Y-109073000D01*
X141273000Y-107823750D01*
X141527000Y-107823750D01*
X141527000Y-109073000D01*
X143126250Y-109073000D01*
X143285000Y-108914250D01*
X143285000Y-108300000D01*
X143502560Y-108300000D01*
X143502560Y-110100000D01*
X143551843Y-110347765D01*
X143692191Y-110557809D01*
X143902235Y-110698157D01*
X144150000Y-110747440D01*
X144798775Y-110747440D01*
X145238969Y-110835000D01*
X148515654Y-110835000D01*
X148690620Y-111009966D01*
X149475322Y-111335000D01*
X150324678Y-111335000D01*
X151109380Y-111009966D01*
X151709966Y-110409380D01*
X152035000Y-109624678D01*
X152035000Y-108775322D01*
X151709966Y-107990620D01*
X151109380Y-107390034D01*
X150324678Y-107065000D01*
X149475322Y-107065000D01*
X148690620Y-107390034D01*
X148515654Y-107565000D01*
X145238969Y-107565000D01*
X144798775Y-107652560D01*
X144150000Y-107652560D01*
X143902235Y-107701843D01*
X143692191Y-107842191D01*
X143551843Y-108052235D01*
X143502560Y-108300000D01*
X143285000Y-108300000D01*
X143285000Y-108173690D01*
X143188327Y-107940301D01*
X143009698Y-107761673D01*
X142776309Y-107665000D01*
X141685750Y-107665000D01*
X141527000Y-107823750D01*
X141273000Y-107823750D01*
X141114250Y-107665000D01*
X140023691Y-107665000D01*
X139790302Y-107761673D01*
X139611673Y-107940301D01*
X139515000Y-108173690D01*
X116134995Y-108173690D01*
X119822935Y-104485750D01*
X139515000Y-104485750D01*
X139515000Y-105226310D01*
X139611673Y-105459699D01*
X139790302Y-105638327D01*
X140023691Y-105735000D01*
X141114250Y-105735000D01*
X141273000Y-105576250D01*
X141273000Y-104327000D01*
X141527000Y-104327000D01*
X141527000Y-105576250D01*
X141685750Y-105735000D01*
X142776309Y-105735000D01*
X143009698Y-105638327D01*
X143188327Y-105459699D01*
X143285000Y-105226310D01*
X143285000Y-104485750D01*
X143126250Y-104327000D01*
X141527000Y-104327000D01*
X141273000Y-104327000D01*
X139673750Y-104327000D01*
X139515000Y-104485750D01*
X119822935Y-104485750D01*
X120532888Y-103775798D01*
X120648529Y-103698529D01*
X120954641Y-103240400D01*
X120967910Y-103173690D01*
X139515000Y-103173690D01*
X139515000Y-103914250D01*
X139673750Y-104073000D01*
X141273000Y-104073000D01*
X141273000Y-102823750D01*
X141527000Y-102823750D01*
X141527000Y-104073000D01*
X143126250Y-104073000D01*
X143285000Y-103914250D01*
X143285000Y-103300000D01*
X143502560Y-103300000D01*
X143502560Y-105100000D01*
X143551843Y-105347765D01*
X143692191Y-105557809D01*
X143902235Y-105698157D01*
X144150000Y-105747440D01*
X144798775Y-105747440D01*
X145238969Y-105835000D01*
X148515654Y-105835000D01*
X148690620Y-106009966D01*
X149475322Y-106335000D01*
X150324678Y-106335000D01*
X151109380Y-106009966D01*
X151709966Y-105409380D01*
X152035000Y-104624678D01*
X152035000Y-103775322D01*
X151709966Y-102990620D01*
X151109380Y-102390034D01*
X150324678Y-102065000D01*
X149475322Y-102065000D01*
X148690620Y-102390034D01*
X148515654Y-102565000D01*
X145238969Y-102565000D01*
X144798775Y-102652560D01*
X144150000Y-102652560D01*
X143902235Y-102701843D01*
X143692191Y-102842191D01*
X143551843Y-103052235D01*
X143502560Y-103300000D01*
X143285000Y-103300000D01*
X143285000Y-103173690D01*
X143188327Y-102940301D01*
X143009698Y-102761673D01*
X142776309Y-102665000D01*
X141685750Y-102665000D01*
X141527000Y-102823750D01*
X141273000Y-102823750D01*
X141114250Y-102665000D01*
X140023691Y-102665000D01*
X139790302Y-102761673D01*
X139611673Y-102940301D01*
X139515000Y-103173690D01*
X120967910Y-103173690D01*
X121004325Y-102990620D01*
X121062133Y-102700000D01*
X121035000Y-102563593D01*
X121035000Y-99213970D01*
X148565635Y-99213970D01*
X148725418Y-99532739D01*
X149516187Y-99842723D01*
X150365387Y-99826497D01*
X151074582Y-99532739D01*
X151234365Y-99213970D01*
X149900000Y-97879605D01*
X148565635Y-99213970D01*
X121035000Y-99213970D01*
X121035000Y-97485750D01*
X143865000Y-97485750D01*
X143865000Y-98576309D01*
X143961673Y-98809698D01*
X144140301Y-98988327D01*
X144373690Y-99085000D01*
X145114250Y-99085000D01*
X145273000Y-98926250D01*
X145273000Y-97327000D01*
X145527000Y-97327000D01*
X145527000Y-98926250D01*
X145685750Y-99085000D01*
X146426310Y-99085000D01*
X146659699Y-98988327D01*
X146838327Y-98809698D01*
X146935000Y-98576309D01*
X146935000Y-97485750D01*
X146776250Y-97327000D01*
X145527000Y-97327000D01*
X145273000Y-97327000D01*
X144023750Y-97327000D01*
X143865000Y-97485750D01*
X121035000Y-97485750D01*
X121035000Y-97316187D01*
X147757277Y-97316187D01*
X147773503Y-98165387D01*
X148067261Y-98874582D01*
X148386030Y-99034365D01*
X149720395Y-97700000D01*
X150079605Y-97700000D01*
X151413970Y-99034365D01*
X151732739Y-98874582D01*
X152042723Y-98083813D01*
X152026497Y-97234613D01*
X151732739Y-96525418D01*
X151413970Y-96365635D01*
X150079605Y-97700000D01*
X149720395Y-97700000D01*
X148386030Y-96365635D01*
X148067261Y-96525418D01*
X147757277Y-97316187D01*
X121035000Y-97316187D01*
X121035000Y-97273685D01*
X123223686Y-95085000D01*
X130823194Y-95085000D01*
X131064615Y-95185000D01*
X131655385Y-95185000D01*
X132201185Y-94958922D01*
X132416149Y-94743958D01*
X133035647Y-94743958D01*
X133115920Y-94995259D01*
X133671279Y-95196718D01*
X134261458Y-95170315D01*
X134684080Y-94995259D01*
X134764353Y-94743958D01*
X133900000Y-93879605D01*
X133035647Y-94743958D01*
X132416149Y-94743958D01*
X132618922Y-94541185D01*
X132638155Y-94494753D01*
X132856042Y-94564353D01*
X133720395Y-93700000D01*
X134079605Y-93700000D01*
X134943958Y-94564353D01*
X135161845Y-94494753D01*
X135181078Y-94541185D01*
X135598815Y-94958922D01*
X136144615Y-95185000D01*
X136735385Y-95185000D01*
X137281185Y-94958922D01*
X137698922Y-94541185D01*
X137925000Y-93995385D01*
X137925000Y-93404615D01*
X137698922Y-92858815D01*
X137281185Y-92441078D01*
X136735385Y-92215000D01*
X136144615Y-92215000D01*
X135598815Y-92441078D01*
X135181078Y-92858815D01*
X135161845Y-92905247D01*
X134943958Y-92835647D01*
X134079605Y-93700000D01*
X133720395Y-93700000D01*
X132856042Y-92835647D01*
X132638155Y-92905247D01*
X132618922Y-92858815D01*
X132416149Y-92656042D01*
X133035647Y-92656042D01*
X133900000Y-93520395D01*
X134764353Y-92656042D01*
X134684080Y-92404741D01*
X134128721Y-92203282D01*
X133538542Y-92229685D01*
X133115920Y-92404741D01*
X133035647Y-92656042D01*
X132416149Y-92656042D01*
X132201185Y-92441078D01*
X131655385Y-92215000D01*
X131064615Y-92215000D01*
X130823194Y-92315000D01*
X122786407Y-92315000D01*
X122650000Y-92287867D01*
X122513593Y-92315000D01*
X122109600Y-92395359D01*
X121651471Y-92701471D01*
X121574202Y-92817112D01*
X118767112Y-95624203D01*
X118651471Y-95701472D01*
X118473572Y-95967717D01*
X118345359Y-96159601D01*
X118285000Y-96463046D01*
X118285000Y-95924506D01*
X118074147Y-95415460D01*
X117858687Y-95200000D01*
X118074147Y-94984540D01*
X118285000Y-94475494D01*
X118285000Y-93924506D01*
X118074147Y-93415460D01*
X117858687Y-93200000D01*
X118074147Y-92984540D01*
X118285000Y-92475494D01*
X118285000Y-91924506D01*
X118074147Y-91415460D01*
X117858687Y-91200000D01*
X118074147Y-90984540D01*
X118285000Y-90475494D01*
X118285000Y-89950000D01*
X140515000Y-89950000D01*
X140515000Y-94950000D01*
X140563336Y-95193004D01*
X140700987Y-95399013D01*
X140906996Y-95536664D01*
X141150000Y-95585000D01*
X143966975Y-95585000D01*
X143961673Y-95590302D01*
X143865000Y-95823691D01*
X143865000Y-96914250D01*
X144023750Y-97073000D01*
X145273000Y-97073000D01*
X145273000Y-97053000D01*
X145527000Y-97053000D01*
X145527000Y-97073000D01*
X146776250Y-97073000D01*
X146935000Y-96914250D01*
X146935000Y-96186030D01*
X148565635Y-96186030D01*
X149900000Y-97520395D01*
X151234365Y-96186030D01*
X151074582Y-95867261D01*
X150283813Y-95557277D01*
X149434613Y-95573503D01*
X148725418Y-95867261D01*
X148565635Y-96186030D01*
X146935000Y-96186030D01*
X146935000Y-95823691D01*
X146838327Y-95590302D01*
X146833025Y-95585000D01*
X147150000Y-95585000D01*
X147393004Y-95536664D01*
X147599013Y-95399013D01*
X147736664Y-95193004D01*
X147785000Y-94950000D01*
X147785000Y-94335000D01*
X148515654Y-94335000D01*
X148690620Y-94509966D01*
X149475322Y-94835000D01*
X150324678Y-94835000D01*
X151109380Y-94509966D01*
X151709966Y-93909380D01*
X152035000Y-93124678D01*
X152035000Y-92275322D01*
X151709966Y-91490620D01*
X151109380Y-90890034D01*
X150324678Y-90565000D01*
X149475322Y-90565000D01*
X148690620Y-90890034D01*
X148515654Y-91065000D01*
X147785000Y-91065000D01*
X147785000Y-89950000D01*
X147736664Y-89706996D01*
X147599013Y-89500987D01*
X147393004Y-89363336D01*
X147150000Y-89315000D01*
X141150000Y-89315000D01*
X140906996Y-89363336D01*
X140700987Y-89500987D01*
X140563336Y-89706996D01*
X140515000Y-89950000D01*
X118285000Y-89950000D01*
X118285000Y-89924506D01*
X118074147Y-89415460D01*
X117858687Y-89200000D01*
X118074147Y-88984540D01*
X118285000Y-88475494D01*
X118285000Y-87924506D01*
X118074147Y-87415460D01*
X117858687Y-87200000D01*
X118074147Y-86984540D01*
X118285000Y-86475494D01*
X118285000Y-85924506D01*
X118074147Y-85415460D01*
X117858687Y-85200000D01*
X118074147Y-84984540D01*
X118285000Y-84475494D01*
X118285000Y-83924506D01*
X118074147Y-83415460D01*
X117684540Y-83025853D01*
X117175494Y-82815000D01*
X116624506Y-82815000D01*
X116115460Y-83025853D01*
X115725853Y-83415460D01*
X115515000Y-83924506D01*
X115515000Y-84475494D01*
X115725853Y-84984540D01*
X115941313Y-85200000D01*
X115725853Y-85415460D01*
X115515000Y-85924506D01*
X115515000Y-86475494D01*
X115725853Y-86984540D01*
X115941313Y-87200000D01*
X115725853Y-87415460D01*
X115610581Y-87693752D01*
X115577431Y-87613720D01*
X115286280Y-87322569D01*
X114905874Y-87165000D01*
X114494126Y-87165000D01*
X114113720Y-87322569D01*
X113822569Y-87613720D01*
X113665000Y-87994126D01*
X113665000Y-88054132D01*
X112967718Y-88751415D01*
X112898000Y-88797999D01*
X112870691Y-88838870D01*
X112777431Y-88613720D01*
X112486280Y-88322569D01*
X112105874Y-88165000D01*
X111694126Y-88165000D01*
X111313720Y-88322569D01*
X111022569Y-88613720D01*
X110865000Y-88994126D01*
X110865000Y-89405874D01*
X111022569Y-89786280D01*
X111065001Y-89828712D01*
X111065000Y-92871289D01*
X111022569Y-92913720D01*
X110865000Y-93294126D01*
X110865000Y-93705874D01*
X111022569Y-94086280D01*
X111313720Y-94377431D01*
X111694126Y-94535000D01*
X112105874Y-94535000D01*
X112410180Y-94408953D01*
X111554132Y-95265001D01*
X111182231Y-95265001D01*
X111099998Y-95248644D01*
X111017765Y-95265001D01*
X111017762Y-95265001D01*
X110774198Y-95313449D01*
X110547386Y-95465000D01*
X110494126Y-95465000D01*
X110113720Y-95622569D01*
X109822569Y-95913720D01*
X109665000Y-96294126D01*
X109665000Y-96705874D01*
X109822569Y-97086280D01*
X110113720Y-97377431D01*
X110494126Y-97535000D01*
X110905874Y-97535000D01*
X111286280Y-97377431D01*
X111577431Y-97086280D01*
X111640093Y-96935001D01*
X111817766Y-96935001D01*
X111899999Y-96951358D01*
X111982232Y-96935001D01*
X111982236Y-96935001D01*
X112225800Y-96886553D01*
X112502000Y-96702002D01*
X112548586Y-96632281D01*
X114032283Y-95148585D01*
X114102001Y-95102001D01*
X114286552Y-94825801D01*
X114335000Y-94582237D01*
X114335000Y-94582234D01*
X114351357Y-94500001D01*
X114335000Y-94417768D01*
X114335000Y-89745867D01*
X114845868Y-89235000D01*
X114905874Y-89235000D01*
X115286280Y-89077431D01*
X115577431Y-88786280D01*
X115610581Y-88706248D01*
X115725853Y-88984540D01*
X115941313Y-89200000D01*
X115725853Y-89415460D01*
X115515000Y-89924506D01*
X115515000Y-90475494D01*
X115725853Y-90984540D01*
X115941313Y-91200000D01*
X115725853Y-91415460D01*
X115515000Y-91924506D01*
X115515000Y-92475494D01*
X115725853Y-92984540D01*
X115941313Y-93200000D01*
X115725853Y-93415460D01*
X115515000Y-93924506D01*
X115515000Y-94475494D01*
X115725853Y-94984540D01*
X115941313Y-95200000D01*
X115725853Y-95415460D01*
X115515000Y-95924506D01*
X115515000Y-96475494D01*
X115725853Y-96984540D01*
X115941313Y-97200000D01*
X115725853Y-97415460D01*
X115515000Y-97924506D01*
X115515000Y-98475494D01*
X115725853Y-98984540D01*
X115941313Y-99200000D01*
X115725853Y-99415460D01*
X115515000Y-99924506D01*
X115515000Y-100475494D01*
X115725853Y-100984540D01*
X115941313Y-101200000D01*
X115725853Y-101415460D01*
X115515000Y-101924506D01*
X115515000Y-102475494D01*
X115725853Y-102984540D01*
X116115460Y-103374147D01*
X116624506Y-103585000D01*
X116806314Y-103585000D01*
X107324203Y-113067112D01*
X107095359Y-113409601D01*
X106987867Y-113950000D01*
X82982239Y-113950000D01*
X82797440Y-113765202D01*
X82797440Y-112050000D01*
X82748157Y-111802235D01*
X82607809Y-111592191D01*
X82397765Y-111451843D01*
X82150000Y-111402560D01*
X81501224Y-111402560D01*
X80900000Y-111282969D01*
X80619243Y-111338815D01*
X80858769Y-111178769D01*
X80949988Y-111042250D01*
X83879985Y-108112254D01*
X83996086Y-107996153D01*
X84058918Y-107844462D01*
X84150136Y-107707946D01*
X84182167Y-107546913D01*
X84245000Y-107395222D01*
X84245000Y-107231031D01*
X84277031Y-107070000D01*
X84245000Y-106908969D01*
X84245000Y-106744778D01*
X84182167Y-106593086D01*
X84150136Y-106432055D01*
X84058919Y-106295539D01*
X83996086Y-106143847D01*
X83879986Y-106027747D01*
X83788769Y-105891231D01*
X83652253Y-105800014D01*
X83536153Y-105683914D01*
X83384461Y-105621081D01*
X83247945Y-105529864D01*
X83086914Y-105497833D01*
X82935222Y-105435000D01*
X82771031Y-105435000D01*
X82610000Y-105402969D01*
X82448969Y-105435000D01*
X82284778Y-105435000D01*
X82133087Y-105497833D01*
X81972054Y-105529864D01*
X81835538Y-105621082D01*
X81683847Y-105683914D01*
X81567746Y-105800015D01*
X79002762Y-108365000D01*
X76007239Y-108365000D01*
X76376086Y-107996153D01*
X76625000Y-107395222D01*
X76625000Y-106744778D01*
X76376086Y-106143847D01*
X75916153Y-105683914D01*
X75315222Y-105435000D01*
X74664778Y-105435000D01*
X74063847Y-105683914D01*
X73603914Y-106143847D01*
X73355000Y-106744778D01*
X73355000Y-107395222D01*
X73603914Y-107996153D01*
X73972761Y-108365000D01*
X71277240Y-108365000D01*
X67919988Y-105007750D01*
X67828769Y-104871231D01*
X67287945Y-104509864D01*
X66811031Y-104415000D01*
X66811030Y-104415000D01*
X66650000Y-104382969D01*
X66488970Y-104415000D01*
X61784346Y-104415000D01*
X61609380Y-104240034D01*
X60824678Y-103915000D01*
X59975322Y-103915000D01*
X59190620Y-104240034D01*
X58590034Y-104840620D01*
X58265000Y-105625322D01*
X56527000Y-105625322D01*
X56527000Y-95625322D01*
X58265000Y-95625322D01*
X58265000Y-96474678D01*
X58590034Y-97259380D01*
X59190620Y-97859966D01*
X59975322Y-98185000D01*
X60824678Y-98185000D01*
X61609380Y-97859966D01*
X61784346Y-97685000D01*
X67972762Y-97685000D01*
X69557746Y-99269985D01*
X69962054Y-99540135D01*
X70599999Y-99667030D01*
X71237945Y-99540135D01*
X71778768Y-99178768D01*
X72140135Y-98637945D01*
X72267030Y-97999999D01*
X72140135Y-97362054D01*
X71869985Y-96957746D01*
X69919988Y-95007750D01*
X69828769Y-94871231D01*
X69287945Y-94509864D01*
X68811031Y-94415000D01*
X68811030Y-94415000D01*
X68650000Y-94382969D01*
X68488970Y-94415000D01*
X61784346Y-94415000D01*
X61609380Y-94240034D01*
X60824678Y-93915000D01*
X59975322Y-93915000D01*
X59190620Y-94240034D01*
X58590034Y-94840620D01*
X58265000Y-95625322D01*
X56527000Y-95625322D01*
X56527000Y-90625322D01*
X58265000Y-90625322D01*
X58265000Y-91474678D01*
X58590034Y-92259380D01*
X59190620Y-92859966D01*
X59975322Y-93185000D01*
X60824678Y-93185000D01*
X61609380Y-92859966D01*
X61784346Y-92685000D01*
X68772762Y-92685000D01*
X73355000Y-97267239D01*
X73355001Y-99124776D01*
X73355000Y-99124778D01*
X73355000Y-99775222D01*
X73417835Y-99926919D01*
X73449865Y-100087945D01*
X73541079Y-100224457D01*
X73603914Y-100376153D01*
X73720017Y-100492256D01*
X73811232Y-100628769D01*
X73947745Y-100719984D01*
X74063847Y-100836086D01*
X74215542Y-100898920D01*
X74239606Y-100914999D01*
X62577238Y-100914999D01*
X62535000Y-100872761D01*
X62535000Y-100625322D01*
X62209966Y-99840620D01*
X61609380Y-99240034D01*
X60824678Y-98915000D01*
X59975322Y-98915000D01*
X59190620Y-99240034D01*
X58590034Y-99840620D01*
X58265000Y-100625322D01*
X58265000Y-101474678D01*
X58590034Y-102259380D01*
X59190620Y-102859966D01*
X59975322Y-103185000D01*
X60222761Y-103185000D01*
X60630013Y-103592251D01*
X60721230Y-103728768D01*
X61262054Y-104090135D01*
X61738968Y-104184999D01*
X61738969Y-104184999D01*
X61899999Y-104217030D01*
X62061029Y-104184999D01*
X80988971Y-104184999D01*
X81150001Y-104217030D01*
X81311031Y-104184999D01*
X81311032Y-104184999D01*
X81787946Y-104090135D01*
X82328770Y-103728768D01*
X82419989Y-103592249D01*
X82840721Y-103171517D01*
X94108088Y-103171517D01*
X94176077Y-103412460D01*
X94695171Y-103597201D01*
X95245448Y-103569230D01*
X95623923Y-103412460D01*
X95691912Y-103171517D01*
X94900000Y-102379605D01*
X94108088Y-103171517D01*
X82840721Y-103171517D01*
X83652253Y-102359986D01*
X83788769Y-102268769D01*
X83971581Y-101995171D01*
X93502799Y-101995171D01*
X93530770Y-102545448D01*
X93687540Y-102923923D01*
X93928483Y-102991912D01*
X94720395Y-102200000D01*
X95079605Y-102200000D01*
X95871517Y-102991912D01*
X96112460Y-102923923D01*
X96297201Y-102404829D01*
X96269230Y-101854552D01*
X96112460Y-101476077D01*
X95871517Y-101408088D01*
X95079605Y-102200000D01*
X94720395Y-102200000D01*
X93928483Y-101408088D01*
X93687540Y-101476077D01*
X93502799Y-101995171D01*
X83971581Y-101995171D01*
X84150136Y-101727945D01*
X84245000Y-101251031D01*
X84245000Y-101251027D01*
X84277030Y-101090001D01*
X84245000Y-100928975D01*
X84245000Y-99124778D01*
X84182167Y-98973086D01*
X84150136Y-98812055D01*
X84058919Y-98675539D01*
X83996086Y-98523847D01*
X83879986Y-98407747D01*
X83788769Y-98271231D01*
X83652253Y-98180014D01*
X83536153Y-98063914D01*
X83384461Y-98001081D01*
X83247945Y-97909864D01*
X83086914Y-97877833D01*
X82935222Y-97815000D01*
X82771031Y-97815000D01*
X82610000Y-97782969D01*
X82448969Y-97815000D01*
X82284778Y-97815000D01*
X82133085Y-97877833D01*
X81972056Y-97909864D01*
X81835542Y-98001080D01*
X81683847Y-98063914D01*
X81567745Y-98180016D01*
X81431232Y-98271231D01*
X81340017Y-98407744D01*
X81223914Y-98523847D01*
X81161079Y-98675543D01*
X81069865Y-98812055D01*
X81037834Y-98973083D01*
X80975000Y-99124778D01*
X80975000Y-100412761D01*
X80472763Y-100914999D01*
X75740395Y-100914999D01*
X75764461Y-100898919D01*
X75916153Y-100836086D01*
X76032253Y-100719986D01*
X76168769Y-100628769D01*
X76259986Y-100492253D01*
X76376086Y-100376153D01*
X76438919Y-100224461D01*
X76530136Y-100087945D01*
X76562167Y-99926914D01*
X76625000Y-99775222D01*
X76625000Y-97360598D01*
X76640136Y-97337945D01*
X76767031Y-96700000D01*
X76640136Y-96062054D01*
X76369985Y-95657746D01*
X76369982Y-95657743D01*
X76278768Y-95521232D01*
X76142257Y-95430018D01*
X70719988Y-90007750D01*
X70628769Y-89871231D01*
X70087945Y-89509864D01*
X69611031Y-89415000D01*
X69611030Y-89415000D01*
X69450000Y-89382969D01*
X69288970Y-89415000D01*
X61784346Y-89415000D01*
X61659346Y-89290000D01*
X73322969Y-89290000D01*
X73355000Y-89451030D01*
X73355000Y-89615222D01*
X73417834Y-89766918D01*
X73449865Y-89927945D01*
X73541079Y-90064456D01*
X73603914Y-90216153D01*
X73720018Y-90332257D01*
X73811232Y-90468768D01*
X73947743Y-90559982D01*
X74063847Y-90676086D01*
X74215544Y-90738921D01*
X74352055Y-90830135D01*
X74513082Y-90862166D01*
X74664778Y-90925000D01*
X74828970Y-90925000D01*
X74990000Y-90957031D01*
X75151030Y-90925000D01*
X75315222Y-90925000D01*
X75466918Y-90862166D01*
X75627945Y-90830135D01*
X75764457Y-90738921D01*
X75916153Y-90676086D01*
X76376087Y-90216152D01*
X77942252Y-88649986D01*
X78078769Y-88558769D01*
X78440136Y-88017945D01*
X78462640Y-87904808D01*
X78607809Y-87807809D01*
X78748157Y-87597765D01*
X78797440Y-87350000D01*
X78797440Y-85550000D01*
X79002560Y-85550000D01*
X79002560Y-87350000D01*
X79051843Y-87597765D01*
X79192191Y-87807809D01*
X79291479Y-87874152D01*
X79359864Y-88217945D01*
X79721232Y-88758769D01*
X79857748Y-88849986D01*
X81223914Y-90216153D01*
X81683847Y-90676086D01*
X81835540Y-90738920D01*
X81972054Y-90830135D01*
X82133082Y-90862165D01*
X82284778Y-90925000D01*
X82448973Y-90925000D01*
X82609999Y-90957030D01*
X82771025Y-90925000D01*
X82935222Y-90925000D01*
X83086919Y-90862165D01*
X83247945Y-90830135D01*
X83384456Y-90738921D01*
X83536153Y-90676086D01*
X83652257Y-90559982D01*
X83788768Y-90468768D01*
X83879982Y-90332257D01*
X83996086Y-90216153D01*
X84058921Y-90064456D01*
X84150135Y-89927945D01*
X84182165Y-89766919D01*
X84245000Y-89615222D01*
X84245000Y-89451025D01*
X84277030Y-89289999D01*
X84245000Y-89128973D01*
X84245000Y-88964778D01*
X84182165Y-88813082D01*
X84150135Y-88652054D01*
X84058920Y-88515540D01*
X83996086Y-88363847D01*
X83536153Y-87903914D01*
X82797440Y-87165202D01*
X82797440Y-85550000D01*
X82748157Y-85302235D01*
X82607809Y-85092191D01*
X82397765Y-84951843D01*
X82150000Y-84902560D01*
X81501224Y-84902560D01*
X80900000Y-84782969D01*
X80298775Y-84902560D01*
X79650000Y-84902560D01*
X79402235Y-84951843D01*
X79192191Y-85092191D01*
X79051843Y-85302235D01*
X79002560Y-85550000D01*
X78797440Y-85550000D01*
X78748157Y-85302235D01*
X78607809Y-85092191D01*
X78397765Y-84951843D01*
X78150000Y-84902560D01*
X77501224Y-84902560D01*
X76900000Y-84782969D01*
X76298775Y-84902560D01*
X75650000Y-84902560D01*
X75402235Y-84951843D01*
X75192191Y-85092191D01*
X75051843Y-85302235D01*
X75002560Y-85550000D01*
X75002560Y-86965201D01*
X73603914Y-88363847D01*
X73541079Y-88515543D01*
X73449865Y-88652055D01*
X73417834Y-88813082D01*
X73355000Y-88964778D01*
X73355000Y-89128970D01*
X73322969Y-89290000D01*
X61659346Y-89290000D01*
X61609380Y-89240034D01*
X60824678Y-88915000D01*
X59975322Y-88915000D01*
X59190620Y-89240034D01*
X58590034Y-89840620D01*
X58265000Y-90625322D01*
X56527000Y-90625322D01*
X56527000Y-83924506D01*
X93515000Y-83924506D01*
X93515000Y-84475494D01*
X93725853Y-84984540D01*
X93941313Y-85200000D01*
X93725853Y-85415460D01*
X93515000Y-85924506D01*
X93515000Y-86475494D01*
X93725853Y-86984540D01*
X93941313Y-87200000D01*
X93725853Y-87415460D01*
X93515000Y-87924506D01*
X93515000Y-88475494D01*
X93725853Y-88984540D01*
X93941313Y-89200000D01*
X93725853Y-89415460D01*
X93515000Y-89924506D01*
X93515000Y-90475494D01*
X93725853Y-90984540D01*
X93941313Y-91200000D01*
X93725853Y-91415460D01*
X93515000Y-91924506D01*
X93515000Y-92475494D01*
X93725853Y-92984540D01*
X93941313Y-93200000D01*
X93725853Y-93415460D01*
X93515000Y-93924506D01*
X93515000Y-94475494D01*
X93725853Y-94984540D01*
X93941313Y-95200000D01*
X93725853Y-95415460D01*
X93515000Y-95924506D01*
X93515000Y-96475494D01*
X93725853Y-96984540D01*
X93941313Y-97200000D01*
X93725853Y-97415460D01*
X93515000Y-97924506D01*
X93515000Y-98475494D01*
X93725853Y-98984540D01*
X93941313Y-99200000D01*
X93725853Y-99415460D01*
X93515000Y-99924506D01*
X93515000Y-100475494D01*
X93725853Y-100984540D01*
X94115460Y-101374147D01*
X94351539Y-101471934D01*
X94900000Y-102020395D01*
X95448461Y-101471934D01*
X95684540Y-101374147D01*
X96074147Y-100984540D01*
X96285000Y-100475494D01*
X96285000Y-99924506D01*
X96074147Y-99415460D01*
X95858687Y-99200000D01*
X96074147Y-98984540D01*
X96285000Y-98475494D01*
X96285000Y-97924506D01*
X96074147Y-97415460D01*
X95858687Y-97200000D01*
X96074147Y-96984540D01*
X96285000Y-96475494D01*
X96285000Y-95924506D01*
X96074147Y-95415460D01*
X95858687Y-95200000D01*
X96074147Y-94984540D01*
X96285000Y-94475494D01*
X96285000Y-93924506D01*
X96074147Y-93415460D01*
X95858687Y-93200000D01*
X96074147Y-92984540D01*
X96285000Y-92475494D01*
X96285000Y-91924506D01*
X96074147Y-91415460D01*
X95858687Y-91200000D01*
X95864561Y-91194126D01*
X104565000Y-91194126D01*
X104565000Y-91605874D01*
X104722569Y-91986280D01*
X104765001Y-92028712D01*
X104765000Y-94771289D01*
X104722569Y-94813720D01*
X104565000Y-95194126D01*
X104565000Y-95605874D01*
X104722569Y-95986280D01*
X105013720Y-96277431D01*
X105394126Y-96435000D01*
X105805874Y-96435000D01*
X106186280Y-96277431D01*
X106477431Y-95986280D01*
X106635000Y-95605874D01*
X106635000Y-95194126D01*
X106477431Y-94813720D01*
X106435000Y-94771289D01*
X106435000Y-92028711D01*
X106477431Y-91986280D01*
X106635000Y-91605874D01*
X106635000Y-91194126D01*
X106477431Y-90813720D01*
X106186280Y-90522569D01*
X105805874Y-90365000D01*
X105394126Y-90365000D01*
X105013720Y-90522569D01*
X104722569Y-90813720D01*
X104565000Y-91194126D01*
X95864561Y-91194126D01*
X96074147Y-90984540D01*
X96285000Y-90475494D01*
X96285000Y-89924506D01*
X96074147Y-89415460D01*
X95858687Y-89200000D01*
X96074147Y-88984540D01*
X96285000Y-88475494D01*
X96285000Y-87924506D01*
X96074147Y-87415460D01*
X95858687Y-87200000D01*
X96074147Y-86984540D01*
X96285000Y-86475494D01*
X96285000Y-85924506D01*
X96074147Y-85415460D01*
X95858687Y-85200000D01*
X96074147Y-84984540D01*
X96285000Y-84475494D01*
X96285000Y-83924506D01*
X96074147Y-83415460D01*
X95684540Y-83025853D01*
X95175494Y-82815000D01*
X94624506Y-82815000D01*
X94115460Y-83025853D01*
X93725853Y-83415460D01*
X93515000Y-83924506D01*
X56527000Y-83924506D01*
X56527000Y-79646029D01*
X58615000Y-79646029D01*
X58615000Y-80753971D01*
X59038991Y-81777576D01*
X59822424Y-82561009D01*
X60846029Y-82985000D01*
X61953971Y-82985000D01*
X62977576Y-82561009D01*
X63761009Y-81777576D01*
X64185000Y-80753971D01*
X64185000Y-79646029D01*
X146615000Y-79646029D01*
X146615000Y-80753971D01*
X147038991Y-81777576D01*
X147822424Y-82561009D01*
X148846029Y-82985000D01*
X149953971Y-82985000D01*
X150977576Y-82561009D01*
X151761009Y-81777576D01*
X152185000Y-80753971D01*
X152185000Y-79646029D01*
X151761009Y-78622424D01*
X150977576Y-77838991D01*
X149953971Y-77415000D01*
X148846029Y-77415000D01*
X147822424Y-77838991D01*
X147038991Y-78622424D01*
X146615000Y-79646029D01*
X64185000Y-79646029D01*
X63761009Y-78622424D01*
X62977576Y-77838991D01*
X61953971Y-77415000D01*
X60846029Y-77415000D01*
X59822424Y-77838991D01*
X59038991Y-78622424D01*
X58615000Y-79646029D01*
X56527000Y-79646029D01*
X56527000Y-75327000D01*
X154273000Y-75327000D01*
X154273000Y-145073000D01*
X154273000Y-145073000D01*
G37*
X154273000Y-145073000D02*
X56527000Y-145073000D01*
X56527000Y-139646029D01*
X58615000Y-139646029D01*
X58615000Y-140753971D01*
X59038991Y-141777576D01*
X59822424Y-142561009D01*
X60846029Y-142985000D01*
X61953971Y-142985000D01*
X62977576Y-142561009D01*
X63761009Y-141777576D01*
X64185000Y-140753971D01*
X64185000Y-139646029D01*
X146615000Y-139646029D01*
X146615000Y-140753971D01*
X147038991Y-141777576D01*
X147822424Y-142561009D01*
X148846029Y-142985000D01*
X149953971Y-142985000D01*
X150977576Y-142561009D01*
X151761009Y-141777576D01*
X152185000Y-140753971D01*
X152185000Y-139646029D01*
X151761009Y-138622424D01*
X150977576Y-137838991D01*
X149953971Y-137415000D01*
X148846029Y-137415000D01*
X147822424Y-137838991D01*
X147038991Y-138622424D01*
X146615000Y-139646029D01*
X64185000Y-139646029D01*
X63761009Y-138622424D01*
X62977576Y-137838991D01*
X61953971Y-137415000D01*
X60846029Y-137415000D01*
X59822424Y-137838991D01*
X59038991Y-138622424D01*
X58615000Y-139646029D01*
X56527000Y-139646029D01*
X56527000Y-133344778D01*
X73355000Y-133344778D01*
X73355000Y-133995222D01*
X73603914Y-134596153D01*
X74063847Y-135056086D01*
X74664778Y-135305000D01*
X75315222Y-135305000D01*
X75916153Y-135056086D01*
X76376086Y-134596153D01*
X76625000Y-133995222D01*
X76625000Y-133344778D01*
X80975000Y-133344778D01*
X80975000Y-133995222D01*
X81223914Y-134596153D01*
X81683847Y-135056086D01*
X82284778Y-135305000D01*
X82935222Y-135305000D01*
X83536153Y-135056086D01*
X83996086Y-134596153D01*
X84245000Y-133995222D01*
X84245000Y-133344778D01*
X83996086Y-132743847D01*
X83536153Y-132283914D01*
X82935222Y-132035000D01*
X82284778Y-132035000D01*
X81683847Y-132283914D01*
X81223914Y-132743847D01*
X80975000Y-133344778D01*
X76625000Y-133344778D01*
X76376086Y-132743847D01*
X75916153Y-132283914D01*
X75315222Y-132035000D01*
X74664778Y-132035000D01*
X74063847Y-132283914D01*
X73603914Y-132743847D01*
X73355000Y-133344778D01*
X56527000Y-133344778D01*
X56527000Y-130125322D01*
X58265000Y-130125322D01*
X58265000Y-130974678D01*
X58590034Y-131759380D01*
X59190620Y-132359966D01*
X59975322Y-132685000D01*
X60824678Y-132685000D01*
X61609380Y-132359966D01*
X62209966Y-131759380D01*
X62535000Y-130974678D01*
X62535000Y-130125322D01*
X62270081Y-129485750D01*
X139515000Y-129485750D01*
X139515000Y-130226310D01*
X139611673Y-130459699D01*
X139790302Y-130638327D01*
X140023691Y-130735000D01*
X141114250Y-130735000D01*
X141273000Y-130576250D01*
X141273000Y-129327000D01*
X141527000Y-129327000D01*
X141527000Y-130576250D01*
X141685750Y-130735000D01*
X142776309Y-130735000D01*
X143009698Y-130638327D01*
X143188327Y-130459699D01*
X143285000Y-130226310D01*
X143285000Y-129485750D01*
X143126250Y-129327000D01*
X141527000Y-129327000D01*
X141273000Y-129327000D01*
X139673750Y-129327000D01*
X139515000Y-129485750D01*
X62270081Y-129485750D01*
X62209966Y-129340620D01*
X61609380Y-128740034D01*
X60824678Y-128415000D01*
X59975322Y-128415000D01*
X59190620Y-128740034D01*
X58590034Y-129340620D01*
X58265000Y-130125322D01*
X56527000Y-130125322D01*
X56527000Y-128173690D01*
X139515000Y-128173690D01*
X139515000Y-128914250D01*
X139673750Y-129073000D01*
X141273000Y-129073000D01*
X141273000Y-127823750D01*
X141527000Y-127823750D01*
X141527000Y-129073000D01*
X143126250Y-129073000D01*
X143285000Y-128914250D01*
X143285000Y-128300000D01*
X143502560Y-128300000D01*
X143502560Y-130100000D01*
X143551843Y-130347765D01*
X143692191Y-130557809D01*
X143902235Y-130698157D01*
X144150000Y-130747440D01*
X144798775Y-130747440D01*
X145238969Y-130835000D01*
X148515654Y-130835000D01*
X148690620Y-131009966D01*
X149475322Y-131335000D01*
X150324678Y-131335000D01*
X151109380Y-131009966D01*
X151709966Y-130409380D01*
X152035000Y-129624678D01*
X152035000Y-128775322D01*
X151709966Y-127990620D01*
X151109380Y-127390034D01*
X150324678Y-127065000D01*
X149475322Y-127065000D01*
X148690620Y-127390034D01*
X148515654Y-127565000D01*
X145238969Y-127565000D01*
X144798775Y-127652560D01*
X144150000Y-127652560D01*
X143902235Y-127701843D01*
X143692191Y-127842191D01*
X143551843Y-128052235D01*
X143502560Y-128300000D01*
X143285000Y-128300000D01*
X143285000Y-128173690D01*
X143188327Y-127940301D01*
X143009698Y-127761673D01*
X142776309Y-127665000D01*
X141685750Y-127665000D01*
X141527000Y-127823750D01*
X141273000Y-127823750D01*
X141114250Y-127665000D01*
X140023691Y-127665000D01*
X139790302Y-127761673D01*
X139611673Y-127940301D01*
X139515000Y-128173690D01*
X56527000Y-128173690D01*
X56527000Y-125125322D01*
X58265000Y-125125322D01*
X58265000Y-125974678D01*
X58590034Y-126759380D01*
X59190620Y-127359966D01*
X59975322Y-127685000D01*
X60824678Y-127685000D01*
X61609380Y-127359966D01*
X62209966Y-126759380D01*
X62535000Y-125974678D01*
X62535000Y-125724778D01*
X73355000Y-125724778D01*
X73355000Y-126375222D01*
X73603914Y-126976153D01*
X74063847Y-127436086D01*
X74664778Y-127685000D01*
X75315222Y-127685000D01*
X75916153Y-127436086D01*
X76376086Y-126976153D01*
X76625000Y-126375222D01*
X76625000Y-125724778D01*
X80975000Y-125724778D01*
X80975000Y-126375222D01*
X81223914Y-126976153D01*
X81683847Y-127436086D01*
X82284778Y-127685000D01*
X82935222Y-127685000D01*
X83536153Y-127436086D01*
X83996086Y-126976153D01*
X84245000Y-126375222D01*
X84245000Y-125724778D01*
X83996086Y-125123847D01*
X83536153Y-124663914D01*
X83106028Y-124485750D01*
X139515000Y-124485750D01*
X139515000Y-125226310D01*
X139611673Y-125459699D01*
X139790302Y-125638327D01*
X140023691Y-125735000D01*
X141114250Y-125735000D01*
X141273000Y-125576250D01*
X141273000Y-124327000D01*
X141527000Y-124327000D01*
X141527000Y-125576250D01*
X141685750Y-125735000D01*
X142776309Y-125735000D01*
X143009698Y-125638327D01*
X143188327Y-125459699D01*
X143285000Y-125226310D01*
X143285000Y-124485750D01*
X143126250Y-124327000D01*
X141527000Y-124327000D01*
X141273000Y-124327000D01*
X139673750Y-124327000D01*
X139515000Y-124485750D01*
X83106028Y-124485750D01*
X82935222Y-124415000D01*
X82284778Y-124415000D01*
X81683847Y-124663914D01*
X81223914Y-125123847D01*
X80975000Y-125724778D01*
X76625000Y-125724778D01*
X76376086Y-125123847D01*
X75916153Y-124663914D01*
X75315222Y-124415000D01*
X74664778Y-124415000D01*
X74063847Y-124663914D01*
X73603914Y-125123847D01*
X73355000Y-125724778D01*
X62535000Y-125724778D01*
X62535000Y-125125322D01*
X62209966Y-124340620D01*
X61609380Y-123740034D01*
X60824678Y-123415000D01*
X59975322Y-123415000D01*
X59190620Y-123740034D01*
X58590034Y-124340620D01*
X58265000Y-125125322D01*
X56527000Y-125125322D01*
X56527000Y-123173690D01*
X139515000Y-123173690D01*
X139515000Y-123914250D01*
X139673750Y-124073000D01*
X141273000Y-124073000D01*
X141273000Y-122823750D01*
X141527000Y-122823750D01*
X141527000Y-124073000D01*
X143126250Y-124073000D01*
X143285000Y-123914250D01*
X143285000Y-123300000D01*
X143502560Y-123300000D01*
X143502560Y-125100000D01*
X143551843Y-125347765D01*
X143692191Y-125557809D01*
X143902235Y-125698157D01*
X144150000Y-125747440D01*
X144798775Y-125747440D01*
X145238969Y-125835000D01*
X148515654Y-125835000D01*
X148690620Y-126009966D01*
X149475322Y-126335000D01*
X150324678Y-126335000D01*
X151109380Y-126009966D01*
X151709966Y-125409380D01*
X152035000Y-124624678D01*
X152035000Y-123775322D01*
X151709966Y-122990620D01*
X151109380Y-122390034D01*
X150324678Y-122065000D01*
X149475322Y-122065000D01*
X148690620Y-122390034D01*
X148515654Y-122565000D01*
X145238969Y-122565000D01*
X144798775Y-122652560D01*
X144150000Y-122652560D01*
X143902235Y-122701843D01*
X143692191Y-122842191D01*
X143551843Y-123052235D01*
X143502560Y-123300000D01*
X143285000Y-123300000D01*
X143285000Y-123173690D01*
X143188327Y-122940301D01*
X143009698Y-122761673D01*
X142776309Y-122665000D01*
X141685750Y-122665000D01*
X141527000Y-122823750D01*
X141273000Y-122823750D01*
X141114250Y-122665000D01*
X140023691Y-122665000D01*
X139790302Y-122761673D01*
X139611673Y-122940301D01*
X139515000Y-123173690D01*
X56527000Y-123173690D01*
X56527000Y-120125322D01*
X58265000Y-120125322D01*
X58265000Y-120974678D01*
X58590034Y-121759380D01*
X59190620Y-122359966D01*
X59975322Y-122685000D01*
X60824678Y-122685000D01*
X61609380Y-122359966D01*
X62209966Y-121759380D01*
X62535000Y-120974678D01*
X62535000Y-120125322D01*
X62270081Y-119485750D01*
X139515000Y-119485750D01*
X139515000Y-120226310D01*
X139611673Y-120459699D01*
X139790302Y-120638327D01*
X140023691Y-120735000D01*
X141114250Y-120735000D01*
X141273000Y-120576250D01*
X141273000Y-119327000D01*
X141527000Y-119327000D01*
X141527000Y-120576250D01*
X141685750Y-120735000D01*
X142776309Y-120735000D01*
X143009698Y-120638327D01*
X143188327Y-120459699D01*
X143285000Y-120226310D01*
X143285000Y-119485750D01*
X143126250Y-119327000D01*
X141527000Y-119327000D01*
X141273000Y-119327000D01*
X139673750Y-119327000D01*
X139515000Y-119485750D01*
X62270081Y-119485750D01*
X62209966Y-119340620D01*
X61609380Y-118740034D01*
X60824678Y-118415000D01*
X59975322Y-118415000D01*
X59190620Y-118740034D01*
X58590034Y-119340620D01*
X58265000Y-120125322D01*
X56527000Y-120125322D01*
X56527000Y-118173690D01*
X139515000Y-118173690D01*
X139515000Y-118914250D01*
X139673750Y-119073000D01*
X141273000Y-119073000D01*
X141273000Y-117823750D01*
X141527000Y-117823750D01*
X141527000Y-119073000D01*
X143126250Y-119073000D01*
X143285000Y-118914250D01*
X143285000Y-118300000D01*
X143502560Y-118300000D01*
X143502560Y-120100000D01*
X143551843Y-120347765D01*
X143692191Y-120557809D01*
X143902235Y-120698157D01*
X144150000Y-120747440D01*
X144798775Y-120747440D01*
X145238969Y-120835000D01*
X148515654Y-120835000D01*
X148690620Y-121009966D01*
X149475322Y-121335000D01*
X150324678Y-121335000D01*
X151109380Y-121009966D01*
X151709966Y-120409380D01*
X152035000Y-119624678D01*
X152035000Y-118775322D01*
X151709966Y-117990620D01*
X151109380Y-117390034D01*
X150324678Y-117065000D01*
X149475322Y-117065000D01*
X148690620Y-117390034D01*
X148515654Y-117565000D01*
X145238969Y-117565000D01*
X144798775Y-117652560D01*
X144150000Y-117652560D01*
X143902235Y-117701843D01*
X143692191Y-117842191D01*
X143551843Y-118052235D01*
X143502560Y-118300000D01*
X143285000Y-118300000D01*
X143285000Y-118173690D01*
X143188327Y-117940301D01*
X143009698Y-117761673D01*
X142776309Y-117665000D01*
X141685750Y-117665000D01*
X141527000Y-117823750D01*
X141273000Y-117823750D01*
X141114250Y-117665000D01*
X140023691Y-117665000D01*
X139790302Y-117761673D01*
X139611673Y-117940301D01*
X139515000Y-118173690D01*
X56527000Y-118173690D01*
X56527000Y-115125322D01*
X58265000Y-115125322D01*
X58265000Y-115974678D01*
X58590034Y-116759380D01*
X59190620Y-117359966D01*
X59975322Y-117685000D01*
X60824678Y-117685000D01*
X61609380Y-117359966D01*
X62209966Y-116759380D01*
X62535000Y-115974678D01*
X62535000Y-115125322D01*
X62209966Y-114340620D01*
X61609380Y-113740034D01*
X60824678Y-113415000D01*
X59975322Y-113415000D01*
X59190620Y-113740034D01*
X58590034Y-114340620D01*
X58265000Y-115125322D01*
X56527000Y-115125322D01*
X56527000Y-105625322D01*
X58265000Y-105625322D01*
X58265000Y-106474678D01*
X58590034Y-107259380D01*
X59190620Y-107859966D01*
X59975322Y-108185000D01*
X60824678Y-108185000D01*
X61609380Y-107859966D01*
X61784346Y-107685000D01*
X65972762Y-107685000D01*
X69330016Y-111042255D01*
X69421231Y-111178769D01*
X69557744Y-111269984D01*
X69557746Y-111269986D01*
X69962054Y-111540136D01*
X70600000Y-111667031D01*
X70761031Y-111635000D01*
X75163587Y-111635000D01*
X75051843Y-111802235D01*
X75002560Y-112050000D01*
X75002560Y-113565201D01*
X73603914Y-114963847D01*
X73541079Y-115115543D01*
X73449865Y-115252055D01*
X73417834Y-115413082D01*
X73355000Y-115564778D01*
X73355000Y-115728970D01*
X73322969Y-115890000D01*
X73355000Y-116051030D01*
X73355000Y-116215222D01*
X73417834Y-116366918D01*
X73449865Y-116527945D01*
X73541079Y-116664456D01*
X73603914Y-116816153D01*
X73720018Y-116932257D01*
X73811232Y-117068768D01*
X73947743Y-117159982D01*
X74063847Y-117276086D01*
X74215544Y-117338921D01*
X74352055Y-117430135D01*
X74513082Y-117462166D01*
X74664778Y-117525000D01*
X74828970Y-117525000D01*
X74990000Y-117557031D01*
X75151030Y-117525000D01*
X75315222Y-117525000D01*
X75466918Y-117462166D01*
X75627945Y-117430135D01*
X75764457Y-117338921D01*
X75916153Y-117276086D01*
X76376087Y-116816152D01*
X77942252Y-115249986D01*
X78078769Y-115158769D01*
X78440136Y-114617945D01*
X78485580Y-114389480D01*
X78607809Y-114307809D01*
X78748157Y-114097765D01*
X78797440Y-113850000D01*
X78797440Y-112050000D01*
X78748157Y-111802235D01*
X78636413Y-111635000D01*
X79163587Y-111635000D01*
X79051843Y-111802235D01*
X79002560Y-112050000D01*
X79002560Y-113850000D01*
X79051843Y-114097765D01*
X79192191Y-114307809D01*
X79268539Y-114358824D01*
X79359864Y-114817945D01*
X79721232Y-115358769D01*
X79857748Y-115449986D01*
X81223914Y-116816153D01*
X81683847Y-117276086D01*
X81835540Y-117338920D01*
X81972054Y-117430135D01*
X82133082Y-117462165D01*
X82284778Y-117525000D01*
X82448973Y-117525000D01*
X82609999Y-117557030D01*
X82771025Y-117525000D01*
X82935222Y-117525000D01*
X83086919Y-117462165D01*
X83247945Y-117430135D01*
X83384456Y-117338921D01*
X83536153Y-117276086D01*
X83652257Y-117159982D01*
X83788768Y-117068768D01*
X83879982Y-116932257D01*
X83996086Y-116816153D01*
X84058921Y-116664456D01*
X84150135Y-116527945D01*
X84182165Y-116366919D01*
X84245000Y-116215222D01*
X84245000Y-116051025D01*
X84277030Y-115889999D01*
X84245000Y-115728973D01*
X84245000Y-115564778D01*
X84182165Y-115413082D01*
X84150135Y-115252054D01*
X84058920Y-115115540D01*
X83996086Y-114963847D01*
X83536153Y-114503914D01*
X82982239Y-113950000D01*
X106987867Y-113950000D01*
X107095359Y-114490399D01*
X107401472Y-114948528D01*
X107859601Y-115254641D01*
X108400000Y-115362133D01*
X108940399Y-115254641D01*
X109282888Y-115025797D01*
X109822935Y-114485750D01*
X139515000Y-114485750D01*
X139515000Y-115226310D01*
X139611673Y-115459699D01*
X139790302Y-115638327D01*
X140023691Y-115735000D01*
X141114250Y-115735000D01*
X141273000Y-115576250D01*
X141273000Y-114327000D01*
X141527000Y-114327000D01*
X141527000Y-115576250D01*
X141685750Y-115735000D01*
X142776309Y-115735000D01*
X143009698Y-115638327D01*
X143188327Y-115459699D01*
X143285000Y-115226310D01*
X143285000Y-114485750D01*
X143126250Y-114327000D01*
X141527000Y-114327000D01*
X141273000Y-114327000D01*
X139673750Y-114327000D01*
X139515000Y-114485750D01*
X109822935Y-114485750D01*
X111134995Y-113173690D01*
X139515000Y-113173690D01*
X139515000Y-113914250D01*
X139673750Y-114073000D01*
X141273000Y-114073000D01*
X141273000Y-112823750D01*
X141527000Y-112823750D01*
X141527000Y-114073000D01*
X143126250Y-114073000D01*
X143285000Y-113914250D01*
X143285000Y-113300000D01*
X143502560Y-113300000D01*
X143502560Y-115100000D01*
X143551843Y-115347765D01*
X143692191Y-115557809D01*
X143902235Y-115698157D01*
X144150000Y-115747440D01*
X144798775Y-115747440D01*
X145238969Y-115835000D01*
X148515654Y-115835000D01*
X148690620Y-116009966D01*
X149475322Y-116335000D01*
X150324678Y-116335000D01*
X151109380Y-116009966D01*
X151709966Y-115409380D01*
X152035000Y-114624678D01*
X152035000Y-113775322D01*
X151709966Y-112990620D01*
X151109380Y-112390034D01*
X150324678Y-112065000D01*
X149475322Y-112065000D01*
X148690620Y-112390034D01*
X148515654Y-112565000D01*
X145238969Y-112565000D01*
X144798775Y-112652560D01*
X144150000Y-112652560D01*
X143902235Y-112701843D01*
X143692191Y-112842191D01*
X143551843Y-113052235D01*
X143502560Y-113300000D01*
X143285000Y-113300000D01*
X143285000Y-113173690D01*
X143188327Y-112940301D01*
X143009698Y-112761673D01*
X142776309Y-112665000D01*
X141685750Y-112665000D01*
X141527000Y-112823750D01*
X141273000Y-112823750D01*
X141114250Y-112665000D01*
X140023691Y-112665000D01*
X139790302Y-112761673D01*
X139611673Y-112940301D01*
X139515000Y-113173690D01*
X111134995Y-113173690D01*
X114822935Y-109485750D01*
X139515000Y-109485750D01*
X139515000Y-110226310D01*
X139611673Y-110459699D01*
X139790302Y-110638327D01*
X140023691Y-110735000D01*
X141114250Y-110735000D01*
X141273000Y-110576250D01*
X141273000Y-109327000D01*
X141527000Y-109327000D01*
X141527000Y-110576250D01*
X141685750Y-110735000D01*
X142776309Y-110735000D01*
X143009698Y-110638327D01*
X143188327Y-110459699D01*
X143285000Y-110226310D01*
X143285000Y-109485750D01*
X143126250Y-109327000D01*
X141527000Y-109327000D01*
X141273000Y-109327000D01*
X139673750Y-109327000D01*
X139515000Y-109485750D01*
X114822935Y-109485750D01*
X116134995Y-108173690D01*
X139515000Y-108173690D01*
X139515000Y-108914250D01*
X139673750Y-109073000D01*
X141273000Y-109073000D01*
X141273000Y-107823750D01*
X141527000Y-107823750D01*
X141527000Y-109073000D01*
X143126250Y-109073000D01*
X143285000Y-108914250D01*
X143285000Y-108300000D01*
X143502560Y-108300000D01*
X143502560Y-110100000D01*
X143551843Y-110347765D01*
X143692191Y-110557809D01*
X143902235Y-110698157D01*
X144150000Y-110747440D01*
X144798775Y-110747440D01*
X145238969Y-110835000D01*
X148515654Y-110835000D01*
X148690620Y-111009966D01*
X149475322Y-111335000D01*
X150324678Y-111335000D01*
X151109380Y-111009966D01*
X151709966Y-110409380D01*
X152035000Y-109624678D01*
X152035000Y-108775322D01*
X151709966Y-107990620D01*
X151109380Y-107390034D01*
X150324678Y-107065000D01*
X149475322Y-107065000D01*
X148690620Y-107390034D01*
X148515654Y-107565000D01*
X145238969Y-107565000D01*
X144798775Y-107652560D01*
X144150000Y-107652560D01*
X143902235Y-107701843D01*
X143692191Y-107842191D01*
X143551843Y-108052235D01*
X143502560Y-108300000D01*
X143285000Y-108300000D01*
X143285000Y-108173690D01*
X143188327Y-107940301D01*
X143009698Y-107761673D01*
X142776309Y-107665000D01*
X141685750Y-107665000D01*
X141527000Y-107823750D01*
X141273000Y-107823750D01*
X141114250Y-107665000D01*
X140023691Y-107665000D01*
X139790302Y-107761673D01*
X139611673Y-107940301D01*
X139515000Y-108173690D01*
X116134995Y-108173690D01*
X119822935Y-104485750D01*
X139515000Y-104485750D01*
X139515000Y-105226310D01*
X139611673Y-105459699D01*
X139790302Y-105638327D01*
X140023691Y-105735000D01*
X141114250Y-105735000D01*
X141273000Y-105576250D01*
X141273000Y-104327000D01*
X141527000Y-104327000D01*
X141527000Y-105576250D01*
X141685750Y-105735000D01*
X142776309Y-105735000D01*
X143009698Y-105638327D01*
X143188327Y-105459699D01*
X143285000Y-105226310D01*
X143285000Y-104485750D01*
X143126250Y-104327000D01*
X141527000Y-104327000D01*
X141273000Y-104327000D01*
X139673750Y-104327000D01*
X139515000Y-104485750D01*
X119822935Y-104485750D01*
X120532888Y-103775798D01*
X120648529Y-103698529D01*
X120954641Y-103240400D01*
X120967910Y-103173690D01*
X139515000Y-103173690D01*
X139515000Y-103914250D01*
X139673750Y-104073000D01*
X141273000Y-104073000D01*
X141273000Y-102823750D01*
X141527000Y-102823750D01*
X141527000Y-104073000D01*
X143126250Y-104073000D01*
X143285000Y-103914250D01*
X143285000Y-103300000D01*
X143502560Y-103300000D01*
X143502560Y-105100000D01*
X143551843Y-105347765D01*
X143692191Y-105557809D01*
X143902235Y-105698157D01*
X144150000Y-105747440D01*
X144798775Y-105747440D01*
X145238969Y-105835000D01*
X148515654Y-105835000D01*
X148690620Y-106009966D01*
X149475322Y-106335000D01*
X150324678Y-106335000D01*
X151109380Y-106009966D01*
X151709966Y-105409380D01*
X152035000Y-104624678D01*
X152035000Y-103775322D01*
X151709966Y-102990620D01*
X151109380Y-102390034D01*
X150324678Y-102065000D01*
X149475322Y-102065000D01*
X148690620Y-102390034D01*
X148515654Y-102565000D01*
X145238969Y-102565000D01*
X144798775Y-102652560D01*
X144150000Y-102652560D01*
X143902235Y-102701843D01*
X143692191Y-102842191D01*
X143551843Y-103052235D01*
X143502560Y-103300000D01*
X143285000Y-103300000D01*
X143285000Y-103173690D01*
X143188327Y-102940301D01*
X143009698Y-102761673D01*
X142776309Y-102665000D01*
X141685750Y-102665000D01*
X141527000Y-102823750D01*
X141273000Y-102823750D01*
X141114250Y-102665000D01*
X140023691Y-102665000D01*
X139790302Y-102761673D01*
X139611673Y-102940301D01*
X139515000Y-103173690D01*
X120967910Y-103173690D01*
X121004325Y-102990620D01*
X121062133Y-102700000D01*
X121035000Y-102563593D01*
X121035000Y-99213970D01*
X148565635Y-99213970D01*
X148725418Y-99532739D01*
X149516187Y-99842723D01*
X150365387Y-99826497D01*
X151074582Y-99532739D01*
X151234365Y-99213970D01*
X149900000Y-97879605D01*
X148565635Y-99213970D01*
X121035000Y-99213970D01*
X121035000Y-97485750D01*
X143865000Y-97485750D01*
X143865000Y-98576309D01*
X143961673Y-98809698D01*
X144140301Y-98988327D01*
X144373690Y-99085000D01*
X145114250Y-99085000D01*
X145273000Y-98926250D01*
X145273000Y-97327000D01*
X145527000Y-97327000D01*
X145527000Y-98926250D01*
X145685750Y-99085000D01*
X146426310Y-99085000D01*
X146659699Y-98988327D01*
X146838327Y-98809698D01*
X146935000Y-98576309D01*
X146935000Y-97485750D01*
X146776250Y-97327000D01*
X145527000Y-97327000D01*
X145273000Y-97327000D01*
X144023750Y-97327000D01*
X143865000Y-97485750D01*
X121035000Y-97485750D01*
X121035000Y-97316187D01*
X147757277Y-97316187D01*
X147773503Y-98165387D01*
X148067261Y-98874582D01*
X148386030Y-99034365D01*
X149720395Y-97700000D01*
X150079605Y-97700000D01*
X151413970Y-99034365D01*
X151732739Y-98874582D01*
X152042723Y-98083813D01*
X152026497Y-97234613D01*
X151732739Y-96525418D01*
X151413970Y-96365635D01*
X150079605Y-97700000D01*
X149720395Y-97700000D01*
X148386030Y-96365635D01*
X148067261Y-96525418D01*
X147757277Y-97316187D01*
X121035000Y-97316187D01*
X121035000Y-97273685D01*
X123223686Y-95085000D01*
X130823194Y-95085000D01*
X131064615Y-95185000D01*
X131655385Y-95185000D01*
X132201185Y-94958922D01*
X132416149Y-94743958D01*
X133035647Y-94743958D01*
X133115920Y-94995259D01*
X133671279Y-95196718D01*
X134261458Y-95170315D01*
X134684080Y-94995259D01*
X134764353Y-94743958D01*
X133900000Y-93879605D01*
X133035647Y-94743958D01*
X132416149Y-94743958D01*
X132618922Y-94541185D01*
X132638155Y-94494753D01*
X132856042Y-94564353D01*
X133720395Y-93700000D01*
X134079605Y-93700000D01*
X134943958Y-94564353D01*
X135161845Y-94494753D01*
X135181078Y-94541185D01*
X135598815Y-94958922D01*
X136144615Y-95185000D01*
X136735385Y-95185000D01*
X137281185Y-94958922D01*
X137698922Y-94541185D01*
X137925000Y-93995385D01*
X137925000Y-93404615D01*
X137698922Y-92858815D01*
X137281185Y-92441078D01*
X136735385Y-92215000D01*
X136144615Y-92215000D01*
X135598815Y-92441078D01*
X135181078Y-92858815D01*
X135161845Y-92905247D01*
X134943958Y-92835647D01*
X134079605Y-93700000D01*
X133720395Y-93700000D01*
X132856042Y-92835647D01*
X132638155Y-92905247D01*
X132618922Y-92858815D01*
X132416149Y-92656042D01*
X133035647Y-92656042D01*
X133900000Y-93520395D01*
X134764353Y-92656042D01*
X134684080Y-92404741D01*
X134128721Y-92203282D01*
X133538542Y-92229685D01*
X133115920Y-92404741D01*
X133035647Y-92656042D01*
X132416149Y-92656042D01*
X132201185Y-92441078D01*
X131655385Y-92215000D01*
X131064615Y-92215000D01*
X130823194Y-92315000D01*
X122786407Y-92315000D01*
X122650000Y-92287867D01*
X122513593Y-92315000D01*
X122109600Y-92395359D01*
X121651471Y-92701471D01*
X121574202Y-92817112D01*
X118767112Y-95624203D01*
X118651471Y-95701472D01*
X118473572Y-95967717D01*
X118345359Y-96159601D01*
X118285000Y-96463046D01*
X118285000Y-95924506D01*
X118074147Y-95415460D01*
X117858687Y-95200000D01*
X118074147Y-94984540D01*
X118285000Y-94475494D01*
X118285000Y-93924506D01*
X118074147Y-93415460D01*
X117858687Y-93200000D01*
X118074147Y-92984540D01*
X118285000Y-92475494D01*
X118285000Y-91924506D01*
X118074147Y-91415460D01*
X117858687Y-91200000D01*
X118074147Y-90984540D01*
X118285000Y-90475494D01*
X118285000Y-89950000D01*
X140515000Y-89950000D01*
X140515000Y-94950000D01*
X140563336Y-95193004D01*
X140700987Y-95399013D01*
X140906996Y-95536664D01*
X141150000Y-95585000D01*
X143966975Y-95585000D01*
X143961673Y-95590302D01*
X143865000Y-95823691D01*
X143865000Y-96914250D01*
X144023750Y-97073000D01*
X145273000Y-97073000D01*
X145273000Y-97053000D01*
X145527000Y-97053000D01*
X145527000Y-97073000D01*
X146776250Y-97073000D01*
X146935000Y-96914250D01*
X146935000Y-96186030D01*
X148565635Y-96186030D01*
X149900000Y-97520395D01*
X151234365Y-96186030D01*
X151074582Y-95867261D01*
X150283813Y-95557277D01*
X149434613Y-95573503D01*
X148725418Y-95867261D01*
X148565635Y-96186030D01*
X146935000Y-96186030D01*
X146935000Y-95823691D01*
X146838327Y-95590302D01*
X146833025Y-95585000D01*
X147150000Y-95585000D01*
X147393004Y-95536664D01*
X147599013Y-95399013D01*
X147736664Y-95193004D01*
X147785000Y-94950000D01*
X147785000Y-94335000D01*
X148515654Y-94335000D01*
X148690620Y-94509966D01*
X149475322Y-94835000D01*
X150324678Y-94835000D01*
X151109380Y-94509966D01*
X151709966Y-93909380D01*
X152035000Y-93124678D01*
X152035000Y-92275322D01*
X151709966Y-91490620D01*
X151109380Y-90890034D01*
X150324678Y-90565000D01*
X149475322Y-90565000D01*
X148690620Y-90890034D01*
X148515654Y-91065000D01*
X147785000Y-91065000D01*
X147785000Y-89950000D01*
X147736664Y-89706996D01*
X147599013Y-89500987D01*
X147393004Y-89363336D01*
X147150000Y-89315000D01*
X141150000Y-89315000D01*
X140906996Y-89363336D01*
X140700987Y-89500987D01*
X140563336Y-89706996D01*
X140515000Y-89950000D01*
X118285000Y-89950000D01*
X118285000Y-89924506D01*
X118074147Y-89415460D01*
X117858687Y-89200000D01*
X118074147Y-88984540D01*
X118285000Y-88475494D01*
X118285000Y-87924506D01*
X118074147Y-87415460D01*
X117858687Y-87200000D01*
X118074147Y-86984540D01*
X118285000Y-86475494D01*
X118285000Y-85924506D01*
X118074147Y-85415460D01*
X117858687Y-85200000D01*
X118074147Y-84984540D01*
X118285000Y-84475494D01*
X118285000Y-83924506D01*
X118074147Y-83415460D01*
X117684540Y-83025853D01*
X117175494Y-82815000D01*
X116624506Y-82815000D01*
X116115460Y-83025853D01*
X115725853Y-83415460D01*
X115515000Y-83924506D01*
X115515000Y-84475494D01*
X115725853Y-84984540D01*
X115941313Y-85200000D01*
X115725853Y-85415460D01*
X115515000Y-85924506D01*
X115515000Y-86475494D01*
X115725853Y-86984540D01*
X115941313Y-87200000D01*
X115725853Y-87415460D01*
X115610581Y-87693752D01*
X115577431Y-87613720D01*
X115286280Y-87322569D01*
X114905874Y-87165000D01*
X114494126Y-87165000D01*
X114113720Y-87322569D01*
X113822569Y-87613720D01*
X113665000Y-87994126D01*
X113665000Y-88054132D01*
X112967718Y-88751415D01*
X112898000Y-88797999D01*
X112870691Y-88838870D01*
X112777431Y-88613720D01*
X112486280Y-88322569D01*
X112105874Y-88165000D01*
X111694126Y-88165000D01*
X111313720Y-88322569D01*
X111022569Y-88613720D01*
X110865000Y-88994126D01*
X110865000Y-89405874D01*
X111022569Y-89786280D01*
X111065001Y-89828712D01*
X111065000Y-92871289D01*
X111022569Y-92913720D01*
X110865000Y-93294126D01*
X110865000Y-93705874D01*
X111022569Y-94086280D01*
X111313720Y-94377431D01*
X111694126Y-94535000D01*
X112105874Y-94535000D01*
X112410180Y-94408953D01*
X111554132Y-95265001D01*
X111182231Y-95265001D01*
X111099998Y-95248644D01*
X111017765Y-95265001D01*
X111017762Y-95265001D01*
X110774198Y-95313449D01*
X110547386Y-95465000D01*
X110494126Y-95465000D01*
X110113720Y-95622569D01*
X109822569Y-95913720D01*
X109665000Y-96294126D01*
X109665000Y-96705874D01*
X109822569Y-97086280D01*
X110113720Y-97377431D01*
X110494126Y-97535000D01*
X110905874Y-97535000D01*
X111286280Y-97377431D01*
X111577431Y-97086280D01*
X111640093Y-96935001D01*
X111817766Y-96935001D01*
X111899999Y-96951358D01*
X111982232Y-96935001D01*
X111982236Y-96935001D01*
X112225800Y-96886553D01*
X112502000Y-96702002D01*
X112548586Y-96632281D01*
X114032283Y-95148585D01*
X114102001Y-95102001D01*
X114286552Y-94825801D01*
X114335000Y-94582237D01*
X114335000Y-94582234D01*
X114351357Y-94500001D01*
X114335000Y-94417768D01*
X114335000Y-89745867D01*
X114845868Y-89235000D01*
X114905874Y-89235000D01*
X115286280Y-89077431D01*
X115577431Y-88786280D01*
X115610581Y-88706248D01*
X115725853Y-88984540D01*
X115941313Y-89200000D01*
X115725853Y-89415460D01*
X115515000Y-89924506D01*
X115515000Y-90475494D01*
X115725853Y-90984540D01*
X115941313Y-91200000D01*
X115725853Y-91415460D01*
X115515000Y-91924506D01*
X115515000Y-92475494D01*
X115725853Y-92984540D01*
X115941313Y-93200000D01*
X115725853Y-93415460D01*
X115515000Y-93924506D01*
X115515000Y-94475494D01*
X115725853Y-94984540D01*
X115941313Y-95200000D01*
X115725853Y-95415460D01*
X115515000Y-95924506D01*
X115515000Y-96475494D01*
X115725853Y-96984540D01*
X115941313Y-97200000D01*
X115725853Y-97415460D01*
X115515000Y-97924506D01*
X115515000Y-98475494D01*
X115725853Y-98984540D01*
X115941313Y-99200000D01*
X115725853Y-99415460D01*
X115515000Y-99924506D01*
X115515000Y-100475494D01*
X115725853Y-100984540D01*
X115941313Y-101200000D01*
X115725853Y-101415460D01*
X115515000Y-101924506D01*
X115515000Y-102475494D01*
X115725853Y-102984540D01*
X116115460Y-103374147D01*
X116624506Y-103585000D01*
X116806314Y-103585000D01*
X107324203Y-113067112D01*
X107095359Y-113409601D01*
X106987867Y-113950000D01*
X82982239Y-113950000D01*
X82797440Y-113765202D01*
X82797440Y-112050000D01*
X82748157Y-111802235D01*
X82607809Y-111592191D01*
X82397765Y-111451843D01*
X82150000Y-111402560D01*
X81501224Y-111402560D01*
X80900000Y-111282969D01*
X80619243Y-111338815D01*
X80858769Y-111178769D01*
X80949988Y-111042250D01*
X83879985Y-108112254D01*
X83996086Y-107996153D01*
X84058918Y-107844462D01*
X84150136Y-107707946D01*
X84182167Y-107546913D01*
X84245000Y-107395222D01*
X84245000Y-107231031D01*
X84277031Y-107070000D01*
X84245000Y-106908969D01*
X84245000Y-106744778D01*
X84182167Y-106593086D01*
X84150136Y-106432055D01*
X84058919Y-106295539D01*
X83996086Y-106143847D01*
X83879986Y-106027747D01*
X83788769Y-105891231D01*
X83652253Y-105800014D01*
X83536153Y-105683914D01*
X83384461Y-105621081D01*
X83247945Y-105529864D01*
X83086914Y-105497833D01*
X82935222Y-105435000D01*
X82771031Y-105435000D01*
X82610000Y-105402969D01*
X82448969Y-105435000D01*
X82284778Y-105435000D01*
X82133087Y-105497833D01*
X81972054Y-105529864D01*
X81835538Y-105621082D01*
X81683847Y-105683914D01*
X81567746Y-105800015D01*
X79002762Y-108365000D01*
X76007239Y-108365000D01*
X76376086Y-107996153D01*
X76625000Y-107395222D01*
X76625000Y-106744778D01*
X76376086Y-106143847D01*
X75916153Y-105683914D01*
X75315222Y-105435000D01*
X74664778Y-105435000D01*
X74063847Y-105683914D01*
X73603914Y-106143847D01*
X73355000Y-106744778D01*
X73355000Y-107395222D01*
X73603914Y-107996153D01*
X73972761Y-108365000D01*
X71277240Y-108365000D01*
X67919988Y-105007750D01*
X67828769Y-104871231D01*
X67287945Y-104509864D01*
X66811031Y-104415000D01*
X66811030Y-104415000D01*
X66650000Y-104382969D01*
X66488970Y-104415000D01*
X61784346Y-104415000D01*
X61609380Y-104240034D01*
X60824678Y-103915000D01*
X59975322Y-103915000D01*
X59190620Y-104240034D01*
X58590034Y-104840620D01*
X58265000Y-105625322D01*
X56527000Y-105625322D01*
X56527000Y-95625322D01*
X58265000Y-95625322D01*
X58265000Y-96474678D01*
X58590034Y-97259380D01*
X59190620Y-97859966D01*
X59975322Y-98185000D01*
X60824678Y-98185000D01*
X61609380Y-97859966D01*
X61784346Y-97685000D01*
X67972762Y-97685000D01*
X69557746Y-99269985D01*
X69962054Y-99540135D01*
X70599999Y-99667030D01*
X71237945Y-99540135D01*
X71778768Y-99178768D01*
X72140135Y-98637945D01*
X72267030Y-97999999D01*
X72140135Y-97362054D01*
X71869985Y-96957746D01*
X69919988Y-95007750D01*
X69828769Y-94871231D01*
X69287945Y-94509864D01*
X68811031Y-94415000D01*
X68811030Y-94415000D01*
X68650000Y-94382969D01*
X68488970Y-94415000D01*
X61784346Y-94415000D01*
X61609380Y-94240034D01*
X60824678Y-93915000D01*
X59975322Y-93915000D01*
X59190620Y-94240034D01*
X58590034Y-94840620D01*
X58265000Y-95625322D01*
X56527000Y-95625322D01*
X56527000Y-90625322D01*
X58265000Y-90625322D01*
X58265000Y-91474678D01*
X58590034Y-92259380D01*
X59190620Y-92859966D01*
X59975322Y-93185000D01*
X60824678Y-93185000D01*
X61609380Y-92859966D01*
X61784346Y-92685000D01*
X68772762Y-92685000D01*
X73355000Y-97267239D01*
X73355001Y-99124776D01*
X73355000Y-99124778D01*
X73355000Y-99775222D01*
X73417835Y-99926919D01*
X73449865Y-100087945D01*
X73541079Y-100224457D01*
X73603914Y-100376153D01*
X73720017Y-100492256D01*
X73811232Y-100628769D01*
X73947745Y-100719984D01*
X74063847Y-100836086D01*
X74215542Y-100898920D01*
X74239606Y-100914999D01*
X62577238Y-100914999D01*
X62535000Y-100872761D01*
X62535000Y-100625322D01*
X62209966Y-99840620D01*
X61609380Y-99240034D01*
X60824678Y-98915000D01*
X59975322Y-98915000D01*
X59190620Y-99240034D01*
X58590034Y-99840620D01*
X58265000Y-100625322D01*
X58265000Y-101474678D01*
X58590034Y-102259380D01*
X59190620Y-102859966D01*
X59975322Y-103185000D01*
X60222761Y-103185000D01*
X60630013Y-103592251D01*
X60721230Y-103728768D01*
X61262054Y-104090135D01*
X61738968Y-104184999D01*
X61738969Y-104184999D01*
X61899999Y-104217030D01*
X62061029Y-104184999D01*
X80988971Y-104184999D01*
X81150001Y-104217030D01*
X81311031Y-104184999D01*
X81311032Y-104184999D01*
X81787946Y-104090135D01*
X82328770Y-103728768D01*
X82419989Y-103592249D01*
X82840721Y-103171517D01*
X94108088Y-103171517D01*
X94176077Y-103412460D01*
X94695171Y-103597201D01*
X95245448Y-103569230D01*
X95623923Y-103412460D01*
X95691912Y-103171517D01*
X94900000Y-102379605D01*
X94108088Y-103171517D01*
X82840721Y-103171517D01*
X83652253Y-102359986D01*
X83788769Y-102268769D01*
X83971581Y-101995171D01*
X93502799Y-101995171D01*
X93530770Y-102545448D01*
X93687540Y-102923923D01*
X93928483Y-102991912D01*
X94720395Y-102200000D01*
X95079605Y-102200000D01*
X95871517Y-102991912D01*
X96112460Y-102923923D01*
X96297201Y-102404829D01*
X96269230Y-101854552D01*
X96112460Y-101476077D01*
X95871517Y-101408088D01*
X95079605Y-102200000D01*
X94720395Y-102200000D01*
X93928483Y-101408088D01*
X93687540Y-101476077D01*
X93502799Y-101995171D01*
X83971581Y-101995171D01*
X84150136Y-101727945D01*
X84245000Y-101251031D01*
X84245000Y-101251027D01*
X84277030Y-101090001D01*
X84245000Y-100928975D01*
X84245000Y-99124778D01*
X84182167Y-98973086D01*
X84150136Y-98812055D01*
X84058919Y-98675539D01*
X83996086Y-98523847D01*
X83879986Y-98407747D01*
X83788769Y-98271231D01*
X83652253Y-98180014D01*
X83536153Y-98063914D01*
X83384461Y-98001081D01*
X83247945Y-97909864D01*
X83086914Y-97877833D01*
X82935222Y-97815000D01*
X82771031Y-97815000D01*
X82610000Y-97782969D01*
X82448969Y-97815000D01*
X82284778Y-97815000D01*
X82133085Y-97877833D01*
X81972056Y-97909864D01*
X81835542Y-98001080D01*
X81683847Y-98063914D01*
X81567745Y-98180016D01*
X81431232Y-98271231D01*
X81340017Y-98407744D01*
X81223914Y-98523847D01*
X81161079Y-98675543D01*
X81069865Y-98812055D01*
X81037834Y-98973083D01*
X80975000Y-99124778D01*
X80975000Y-100412761D01*
X80472763Y-100914999D01*
X75740395Y-100914999D01*
X75764461Y-100898919D01*
X75916153Y-100836086D01*
X76032253Y-100719986D01*
X76168769Y-100628769D01*
X76259986Y-100492253D01*
X76376086Y-100376153D01*
X76438919Y-100224461D01*
X76530136Y-100087945D01*
X76562167Y-99926914D01*
X76625000Y-99775222D01*
X76625000Y-97360598D01*
X76640136Y-97337945D01*
X76767031Y-96700000D01*
X76640136Y-96062054D01*
X76369985Y-95657746D01*
X76369982Y-95657743D01*
X76278768Y-95521232D01*
X76142257Y-95430018D01*
X70719988Y-90007750D01*
X70628769Y-89871231D01*
X70087945Y-89509864D01*
X69611031Y-89415000D01*
X69611030Y-89415000D01*
X69450000Y-89382969D01*
X69288970Y-89415000D01*
X61784346Y-89415000D01*
X61659346Y-89290000D01*
X73322969Y-89290000D01*
X73355000Y-89451030D01*
X73355000Y-89615222D01*
X73417834Y-89766918D01*
X73449865Y-89927945D01*
X73541079Y-90064456D01*
X73603914Y-90216153D01*
X73720018Y-90332257D01*
X73811232Y-90468768D01*
X73947743Y-90559982D01*
X74063847Y-90676086D01*
X74215544Y-90738921D01*
X74352055Y-90830135D01*
X74513082Y-90862166D01*
X74664778Y-90925000D01*
X74828970Y-90925000D01*
X74990000Y-90957031D01*
X75151030Y-90925000D01*
X75315222Y-90925000D01*
X75466918Y-90862166D01*
X75627945Y-90830135D01*
X75764457Y-90738921D01*
X75916153Y-90676086D01*
X76376087Y-90216152D01*
X77942252Y-88649986D01*
X78078769Y-88558769D01*
X78440136Y-88017945D01*
X78462640Y-87904808D01*
X78607809Y-87807809D01*
X78748157Y-87597765D01*
X78797440Y-87350000D01*
X78797440Y-85550000D01*
X79002560Y-85550000D01*
X79002560Y-87350000D01*
X79051843Y-87597765D01*
X79192191Y-87807809D01*
X79291479Y-87874152D01*
X79359864Y-88217945D01*
X79721232Y-88758769D01*
X79857748Y-88849986D01*
X81223914Y-90216153D01*
X81683847Y-90676086D01*
X81835540Y-90738920D01*
X81972054Y-90830135D01*
X82133082Y-90862165D01*
X82284778Y-90925000D01*
X82448973Y-90925000D01*
X82609999Y-90957030D01*
X82771025Y-90925000D01*
X82935222Y-90925000D01*
X83086919Y-90862165D01*
X83247945Y-90830135D01*
X83384456Y-90738921D01*
X83536153Y-90676086D01*
X83652257Y-90559982D01*
X83788768Y-90468768D01*
X83879982Y-90332257D01*
X83996086Y-90216153D01*
X84058921Y-90064456D01*
X84150135Y-89927945D01*
X84182165Y-89766919D01*
X84245000Y-89615222D01*
X84245000Y-89451025D01*
X84277030Y-89289999D01*
X84245000Y-89128973D01*
X84245000Y-88964778D01*
X84182165Y-88813082D01*
X84150135Y-88652054D01*
X84058920Y-88515540D01*
X83996086Y-88363847D01*
X83536153Y-87903914D01*
X82797440Y-87165202D01*
X82797440Y-85550000D01*
X82748157Y-85302235D01*
X82607809Y-85092191D01*
X82397765Y-84951843D01*
X82150000Y-84902560D01*
X81501224Y-84902560D01*
X80900000Y-84782969D01*
X80298775Y-84902560D01*
X79650000Y-84902560D01*
X79402235Y-84951843D01*
X79192191Y-85092191D01*
X79051843Y-85302235D01*
X79002560Y-85550000D01*
X78797440Y-85550000D01*
X78748157Y-85302235D01*
X78607809Y-85092191D01*
X78397765Y-84951843D01*
X78150000Y-84902560D01*
X77501224Y-84902560D01*
X76900000Y-84782969D01*
X76298775Y-84902560D01*
X75650000Y-84902560D01*
X75402235Y-84951843D01*
X75192191Y-85092191D01*
X75051843Y-85302235D01*
X75002560Y-85550000D01*
X75002560Y-86965201D01*
X73603914Y-88363847D01*
X73541079Y-88515543D01*
X73449865Y-88652055D01*
X73417834Y-88813082D01*
X73355000Y-88964778D01*
X73355000Y-89128970D01*
X73322969Y-89290000D01*
X61659346Y-89290000D01*
X61609380Y-89240034D01*
X60824678Y-88915000D01*
X59975322Y-88915000D01*
X59190620Y-89240034D01*
X58590034Y-89840620D01*
X58265000Y-90625322D01*
X56527000Y-90625322D01*
X56527000Y-83924506D01*
X93515000Y-83924506D01*
X93515000Y-84475494D01*
X93725853Y-84984540D01*
X93941313Y-85200000D01*
X93725853Y-85415460D01*
X93515000Y-85924506D01*
X93515000Y-86475494D01*
X93725853Y-86984540D01*
X93941313Y-87200000D01*
X93725853Y-87415460D01*
X93515000Y-87924506D01*
X93515000Y-88475494D01*
X93725853Y-88984540D01*
X93941313Y-89200000D01*
X93725853Y-89415460D01*
X93515000Y-89924506D01*
X93515000Y-90475494D01*
X93725853Y-90984540D01*
X93941313Y-91200000D01*
X93725853Y-91415460D01*
X93515000Y-91924506D01*
X93515000Y-92475494D01*
X93725853Y-92984540D01*
X93941313Y-93200000D01*
X93725853Y-93415460D01*
X93515000Y-93924506D01*
X93515000Y-94475494D01*
X93725853Y-94984540D01*
X93941313Y-95200000D01*
X93725853Y-95415460D01*
X93515000Y-95924506D01*
X93515000Y-96475494D01*
X93725853Y-96984540D01*
X93941313Y-97200000D01*
X93725853Y-97415460D01*
X93515000Y-97924506D01*
X93515000Y-98475494D01*
X93725853Y-98984540D01*
X93941313Y-99200000D01*
X93725853Y-99415460D01*
X93515000Y-99924506D01*
X93515000Y-100475494D01*
X93725853Y-100984540D01*
X94115460Y-101374147D01*
X94351539Y-101471934D01*
X94900000Y-102020395D01*
X95448461Y-101471934D01*
X95684540Y-101374147D01*
X96074147Y-100984540D01*
X96285000Y-100475494D01*
X96285000Y-99924506D01*
X96074147Y-99415460D01*
X95858687Y-99200000D01*
X96074147Y-98984540D01*
X96285000Y-98475494D01*
X96285000Y-97924506D01*
X96074147Y-97415460D01*
X95858687Y-97200000D01*
X96074147Y-96984540D01*
X96285000Y-96475494D01*
X96285000Y-95924506D01*
X96074147Y-95415460D01*
X95858687Y-95200000D01*
X96074147Y-94984540D01*
X96285000Y-94475494D01*
X96285000Y-93924506D01*
X96074147Y-93415460D01*
X95858687Y-93200000D01*
X96074147Y-92984540D01*
X96285000Y-92475494D01*
X96285000Y-91924506D01*
X96074147Y-91415460D01*
X95858687Y-91200000D01*
X95864561Y-91194126D01*
X104565000Y-91194126D01*
X104565000Y-91605874D01*
X104722569Y-91986280D01*
X104765001Y-92028712D01*
X104765000Y-94771289D01*
X104722569Y-94813720D01*
X104565000Y-95194126D01*
X104565000Y-95605874D01*
X104722569Y-95986280D01*
X105013720Y-96277431D01*
X105394126Y-96435000D01*
X105805874Y-96435000D01*
X106186280Y-96277431D01*
X106477431Y-95986280D01*
X106635000Y-95605874D01*
X106635000Y-95194126D01*
X106477431Y-94813720D01*
X106435000Y-94771289D01*
X106435000Y-92028711D01*
X106477431Y-91986280D01*
X106635000Y-91605874D01*
X106635000Y-91194126D01*
X106477431Y-90813720D01*
X106186280Y-90522569D01*
X105805874Y-90365000D01*
X105394126Y-90365000D01*
X105013720Y-90522569D01*
X104722569Y-90813720D01*
X104565000Y-91194126D01*
X95864561Y-91194126D01*
X96074147Y-90984540D01*
X96285000Y-90475494D01*
X96285000Y-89924506D01*
X96074147Y-89415460D01*
X95858687Y-89200000D01*
X96074147Y-88984540D01*
X96285000Y-88475494D01*
X96285000Y-87924506D01*
X96074147Y-87415460D01*
X95858687Y-87200000D01*
X96074147Y-86984540D01*
X96285000Y-86475494D01*
X96285000Y-85924506D01*
X96074147Y-85415460D01*
X95858687Y-85200000D01*
X96074147Y-84984540D01*
X96285000Y-84475494D01*
X96285000Y-83924506D01*
X96074147Y-83415460D01*
X95684540Y-83025853D01*
X95175494Y-82815000D01*
X94624506Y-82815000D01*
X94115460Y-83025853D01*
X93725853Y-83415460D01*
X93515000Y-83924506D01*
X56527000Y-83924506D01*
X56527000Y-79646029D01*
X58615000Y-79646029D01*
X58615000Y-80753971D01*
X59038991Y-81777576D01*
X59822424Y-82561009D01*
X60846029Y-82985000D01*
X61953971Y-82985000D01*
X62977576Y-82561009D01*
X63761009Y-81777576D01*
X64185000Y-80753971D01*
X64185000Y-79646029D01*
X146615000Y-79646029D01*
X146615000Y-80753971D01*
X147038991Y-81777576D01*
X147822424Y-82561009D01*
X148846029Y-82985000D01*
X149953971Y-82985000D01*
X150977576Y-82561009D01*
X151761009Y-81777576D01*
X152185000Y-80753971D01*
X152185000Y-79646029D01*
X151761009Y-78622424D01*
X150977576Y-77838991D01*
X149953971Y-77415000D01*
X148846029Y-77415000D01*
X147822424Y-77838991D01*
X147038991Y-78622424D01*
X146615000Y-79646029D01*
X64185000Y-79646029D01*
X63761009Y-78622424D01*
X62977576Y-77838991D01*
X61953971Y-77415000D01*
X60846029Y-77415000D01*
X59822424Y-77838991D01*
X59038991Y-78622424D01*
X58615000Y-79646029D01*
X56527000Y-79646029D01*
X56527000Y-75327000D01*
X154273000Y-75327000D01*
X154273000Y-145073000D01*
G04 #@! TO.N,Net-(D1-PadA)*
G36*
X147023000Y-94823000D02*
X141277000Y-94823000D01*
X141277000Y-90077000D01*
X147023000Y-90077000D01*
X147023000Y-94823000D01*
X147023000Y-94823000D01*
G37*
X147023000Y-94823000D02*
X141277000Y-94823000D01*
X141277000Y-90077000D01*
X147023000Y-90077000D01*
X147023000Y-94823000D01*
G04 #@! TD*
M02*
