G04 #@! TF.GenerationSoftware,KiCad,Pcbnew,(5.0.0-3-g5ebb6b6)*
G04 #@! TF.CreationDate,2018-09-16T20:50:52-07:00*
G04 #@! TF.ProjectId,controller_MK5,636F6E74726F6C6C65725F4D4B352E6B,rev?*
G04 #@! TF.SameCoordinates,Original*
G04 #@! TF.FileFunction,Soldermask,Bot*
G04 #@! TF.FilePolarity,Negative*
%FSLAX46Y46*%
G04 Gerber Fmt 4.6, Leading zero omitted, Abs format (unit mm)*
G04 Created by KiCad (PCBNEW (5.0.0-3-g5ebb6b6)) date Sunday, September 16, 2018 at 08:50:52 PM*
%MOMM*%
%LPD*%
G01*
G04 APERTURE LIST*
%ADD10C,2.400000*%
%ADD11R,2.200000X2.900000*%
%ADD12C,1.900000*%
%ADD13C,3.400000*%
%ADD14C,4.700000*%
%ADD15R,2.900000X2.200000*%
%ADD16C,2.100000*%
G04 APERTURE END LIST*
D10*
G04 #@! TO.C,U7*
X74990000Y-115890000D03*
X74990000Y-126050000D03*
X74990000Y-133670000D03*
X82610000Y-133670000D03*
X82610000Y-126050000D03*
X82610000Y-115890000D03*
G04 #@! TD*
G04 #@! TO.C,U11*
X74990000Y-89290000D03*
X74990000Y-99450000D03*
X74990000Y-107070000D03*
X82610000Y-107070000D03*
X82610000Y-99450000D03*
X82610000Y-89290000D03*
G04 #@! TD*
D11*
G04 #@! TO.C,D1*
X145400000Y-97200000D03*
X145400000Y-93200000D03*
G04 #@! TD*
D12*
G04 #@! TO.C,U1*
X116900000Y-84200000D03*
X94900000Y-84200000D03*
X116900000Y-86200000D03*
X94900000Y-86200000D03*
X116900000Y-88200000D03*
X94900000Y-88200000D03*
X116900000Y-90200000D03*
X94900000Y-90200000D03*
X116900000Y-92200000D03*
X94900000Y-92200000D03*
X116900000Y-94200000D03*
X94900000Y-94200000D03*
X116900000Y-96200000D03*
X94900000Y-96200000D03*
X116900000Y-98200000D03*
X94900000Y-98200000D03*
X116900000Y-100200000D03*
X94900000Y-100200000D03*
X116900000Y-102200000D03*
X94900000Y-102200000D03*
G04 #@! TD*
D13*
G04 #@! TO.C,J1*
X149900000Y-92700000D03*
X149900000Y-97700000D03*
G04 #@! TD*
G04 #@! TO.C,J4*
X60400000Y-91050000D03*
X60400000Y-96050000D03*
X60400000Y-101050000D03*
X60400000Y-106050000D03*
G04 #@! TD*
G04 #@! TO.C,J5*
X60400000Y-130550000D03*
X60400000Y-125550000D03*
X60400000Y-120550000D03*
X60400000Y-115550000D03*
G04 #@! TD*
G04 #@! TO.C,J6*
X149900000Y-104200000D03*
X149900000Y-109200000D03*
X149900000Y-114200000D03*
X149900000Y-119200000D03*
X149900000Y-124200000D03*
X149900000Y-129200000D03*
G04 #@! TD*
D14*
G04 #@! TO.C,J2*
X149400000Y-140200000D03*
G04 #@! TD*
G04 #@! TO.C,J7*
X149400000Y-80200000D03*
G04 #@! TD*
G04 #@! TO.C,J8*
X61400000Y-140200000D03*
G04 #@! TD*
G04 #@! TO.C,J9*
X61400000Y-80200000D03*
G04 #@! TD*
D15*
G04 #@! TO.C,D4*
X141400000Y-129200000D03*
X145400000Y-129200000D03*
G04 #@! TD*
G04 #@! TO.C,D5*
X141400000Y-124200000D03*
X145400000Y-124200000D03*
G04 #@! TD*
G04 #@! TO.C,D6*
X145400000Y-119200000D03*
X141400000Y-119200000D03*
G04 #@! TD*
G04 #@! TO.C,D8*
X145400000Y-114200000D03*
X141400000Y-114200000D03*
G04 #@! TD*
G04 #@! TO.C,D9*
X141400000Y-109200000D03*
X145400000Y-109200000D03*
G04 #@! TD*
G04 #@! TO.C,D10*
X145400000Y-104200000D03*
X141400000Y-104200000D03*
G04 #@! TD*
G04 #@! TO.C,D11*
X80900000Y-86450000D03*
X76900000Y-86450000D03*
G04 #@! TD*
G04 #@! TO.C,D2*
X80900000Y-112950000D03*
X76900000Y-112950000D03*
G04 #@! TD*
D16*
G04 #@! TO.C,U2*
X136440000Y-93700000D03*
X133900000Y-93700000D03*
X131360000Y-93700000D03*
G04 #@! TD*
M02*
